M48
;GenerationSoftware,Autodesk,EAGLE,9.6.2*%
;CreationDate,2022-04-14T16:57:39Z*%
FMAT,2
ICI,OFF
METRIC,TZ,000.000
T4C0.350
T3C0.813
T2C0.900
T1C1.016
%
G90
M71
T1
X46990Y21590
X15240Y2413
X2540Y5080
X2540Y7620
X2540Y2540
X2540Y26670
X2540Y29210
X2540Y31750
X2540Y34290
X2540Y36830
X2540Y13970
X2540Y16510
X2540Y19050
X2540Y21590
X2540Y24130
X46990Y13970
X36449Y2032
X46990Y16510
X46990Y19050
X46990Y24130
X46990Y26670
X46990Y29210
X46990Y31750
X46990Y34290
X46990Y36830
X40640Y7493
X40640Y10033
X15240Y4953
X11938Y4572
X11938Y2032
X11938Y7112
X11938Y9652
X41529Y2032
X38989Y2032
X33909Y2032
X31369Y2032
X28829Y2032
X20193Y47371
X22733Y47371
X25273Y47371
X27813Y47371
X30353Y47371
X44323Y2413
X44323Y4953
X44323Y7493
X44323Y10033
X42926Y46990
X48006Y46990
X7112Y46863
X2032Y46863
T2
X22733Y5206
X20233Y5206
X22733Y1906
X20233Y1906
X25233Y1906
X25233Y5206
T3
X21590Y11430
X21590Y8890
X29210Y8890
X29210Y11430
X29210Y13970
X29210Y16510
X29210Y19050
X29210Y21590
X21590Y31750
X29210Y26670
X29210Y29210
X29210Y31750
X29210Y34290
X29210Y36830
X29210Y39370
X29210Y41910
X29210Y24130
X39243Y48260
X33020Y41910
X33020Y39370
X19050Y11430
X16510Y11430
X31750Y21590
X34290Y21590
X39243Y45720
X11684Y48260
X11684Y45720
X35814Y36195
X35814Y43815
X13589Y35687
X13589Y43307
X38608Y43815
X38608Y36195
X10922Y43307
X10922Y35687
X21590Y41910
X21590Y39370
X21590Y36830
X21590Y34290
X21590Y29210
X21590Y26670
X21590Y24130
X21590Y21590
X21590Y19050
X21590Y16510
X21590Y13970
T4
X8890Y19050
X8890Y27940
X26416Y21463
X34925Y11430
X36830Y8890
X36830Y13970
X34925Y16637
X18161Y40767
X18161Y16510
X33147Y7112
X16510Y45720
X16510Y13970
X14859Y41656
X6350Y33020
X6350Y20320
X41910Y36830
X41910Y16510
X7620Y12700
X7620Y2540
X4699Y15367
X4699Y21590
X33147Y19050
X39370Y21463
X39370Y12700
X13970Y26670
X13970Y8890
M30