G04 EAGLE Gerber RS-274X export*
G75*
%MOMM*%
%FSLAX34Y34*%
%LPD*%
%INBottom Copper*%
%IPPOS*%
%AMOC8*
5,1,8,0,0,1.08239X$1,22.5*%
G01*
%ADD10P,1.429621X8X292.500000*%
%ADD11P,1.429621X8X202.500000*%
%ADD12P,1.429621X8X22.500000*%
%ADD13P,1.429621X8X112.500000*%
%ADD14C,1.320800*%
%ADD15C,1.879600*%
%ADD16C,1.408000*%
%ADD17C,0.756400*%
%ADD18C,0.406400*%

G36*
X108733Y10172D02*
X108733Y10172D01*
X108805Y10174D01*
X108854Y10192D01*
X108905Y10200D01*
X108968Y10234D01*
X109036Y10259D01*
X109076Y10291D01*
X109122Y10316D01*
X109172Y10368D01*
X109228Y10412D01*
X109256Y10456D01*
X109292Y10494D01*
X109322Y10559D01*
X109361Y10619D01*
X109373Y10670D01*
X109395Y10717D01*
X109403Y10788D01*
X109421Y10858D01*
X109417Y10910D01*
X109423Y10961D01*
X109407Y11032D01*
X109402Y11103D01*
X109381Y11151D01*
X109370Y11202D01*
X109333Y11263D01*
X109305Y11329D01*
X109261Y11385D01*
X109244Y11413D01*
X109226Y11428D01*
X109201Y11460D01*
X107967Y12694D01*
X105917Y17642D01*
X105917Y22998D01*
X107967Y27946D01*
X111754Y31733D01*
X115140Y33136D01*
X115226Y33189D01*
X115315Y33237D01*
X115330Y33254D01*
X115349Y33265D01*
X115413Y33343D01*
X115482Y33417D01*
X115491Y33438D01*
X115506Y33455D01*
X115542Y33549D01*
X115584Y33642D01*
X115586Y33664D01*
X115594Y33684D01*
X115598Y33785D01*
X115608Y33886D01*
X115603Y33908D01*
X115604Y33930D01*
X115576Y34027D01*
X115553Y34126D01*
X115542Y34145D01*
X115536Y34166D01*
X115478Y34249D01*
X115425Y34336D01*
X115408Y34350D01*
X115395Y34368D01*
X115314Y34429D01*
X115236Y34494D01*
X115212Y34505D01*
X115198Y34515D01*
X115167Y34525D01*
X115084Y34563D01*
X114797Y34656D01*
X113123Y35509D01*
X111602Y36614D01*
X110274Y37942D01*
X109169Y39463D01*
X108316Y41137D01*
X107735Y42924D01*
X107534Y44197D01*
X118618Y44197D01*
X118638Y44200D01*
X118657Y44198D01*
X118759Y44220D01*
X118861Y44237D01*
X118878Y44246D01*
X118898Y44250D01*
X118987Y44303D01*
X119078Y44352D01*
X119092Y44366D01*
X119109Y44376D01*
X119176Y44455D01*
X119247Y44530D01*
X119256Y44548D01*
X119269Y44563D01*
X119307Y44659D01*
X119351Y44753D01*
X119353Y44773D01*
X119361Y44791D01*
X119379Y44958D01*
X119379Y46482D01*
X119376Y46502D01*
X119378Y46521D01*
X119356Y46623D01*
X119339Y46725D01*
X119330Y46742D01*
X119326Y46762D01*
X119273Y46851D01*
X119224Y46942D01*
X119210Y46956D01*
X119200Y46973D01*
X119121Y47040D01*
X119046Y47111D01*
X119028Y47120D01*
X119013Y47133D01*
X118917Y47172D01*
X118823Y47215D01*
X118803Y47217D01*
X118785Y47225D01*
X118618Y47243D01*
X107534Y47243D01*
X107735Y48516D01*
X108316Y50303D01*
X109169Y51977D01*
X110274Y53498D01*
X111602Y54826D01*
X113123Y55931D01*
X114797Y56784D01*
X115084Y56877D01*
X115174Y56924D01*
X115266Y56965D01*
X115282Y56980D01*
X115302Y56990D01*
X115373Y57063D01*
X115447Y57131D01*
X115458Y57151D01*
X115473Y57167D01*
X115517Y57258D01*
X115566Y57347D01*
X115570Y57369D01*
X115579Y57389D01*
X115592Y57489D01*
X115610Y57589D01*
X115606Y57611D01*
X115609Y57633D01*
X115589Y57732D01*
X115574Y57832D01*
X115564Y57852D01*
X115559Y57874D01*
X115508Y57961D01*
X115462Y58051D01*
X115446Y58067D01*
X115435Y58086D01*
X115359Y58153D01*
X115287Y58224D01*
X115263Y58237D01*
X115250Y58248D01*
X115220Y58260D01*
X115140Y58304D01*
X111754Y59707D01*
X107967Y63494D01*
X105917Y68442D01*
X105917Y73798D01*
X107967Y78746D01*
X111754Y82533D01*
X113163Y83117D01*
X113224Y83155D01*
X113289Y83184D01*
X113328Y83219D01*
X113372Y83246D01*
X113418Y83302D01*
X113470Y83350D01*
X113495Y83396D01*
X113529Y83436D01*
X113554Y83503D01*
X113589Y83566D01*
X113598Y83617D01*
X113617Y83665D01*
X113620Y83737D01*
X113633Y83808D01*
X113625Y83859D01*
X113627Y83911D01*
X113607Y83980D01*
X113597Y84051D01*
X113573Y84097D01*
X113559Y84147D01*
X113518Y84206D01*
X113485Y84270D01*
X113448Y84307D01*
X113418Y84349D01*
X113361Y84392D01*
X113310Y84442D01*
X113247Y84477D01*
X113221Y84496D01*
X113199Y84503D01*
X113163Y84523D01*
X111754Y85107D01*
X107967Y88894D01*
X105917Y93842D01*
X105917Y99198D01*
X107967Y104146D01*
X111754Y107933D01*
X116702Y109983D01*
X122058Y109983D01*
X127006Y107933D01*
X130793Y104146D01*
X132139Y100898D01*
X132190Y100815D01*
X132236Y100729D01*
X132255Y100711D01*
X132268Y100688D01*
X132343Y100626D01*
X132414Y100559D01*
X132438Y100548D01*
X132458Y100532D01*
X132549Y100497D01*
X132637Y100456D01*
X132663Y100453D01*
X132687Y100443D01*
X132785Y100439D01*
X132881Y100429D01*
X132907Y100434D01*
X132933Y100433D01*
X133027Y100460D01*
X133122Y100481D01*
X133144Y100494D01*
X133169Y100502D01*
X133249Y100557D01*
X133333Y100607D01*
X133350Y100627D01*
X133371Y100642D01*
X133430Y100720D01*
X133493Y100794D01*
X133503Y100818D01*
X133518Y100839D01*
X133548Y100932D01*
X133585Y101022D01*
X133588Y101055D01*
X133594Y101073D01*
X133594Y101106D01*
X133603Y101189D01*
X133603Y261384D01*
X133601Y261400D01*
X133602Y261413D01*
X133588Y261477D01*
X133581Y261565D01*
X133569Y261595D01*
X133564Y261627D01*
X133550Y261653D01*
X133549Y261655D01*
X133521Y261708D01*
X133485Y261792D01*
X133459Y261824D01*
X133448Y261845D01*
X133425Y261867D01*
X133380Y261923D01*
X133048Y262255D01*
X131853Y265139D01*
X131853Y268261D01*
X133048Y271145D01*
X135255Y273352D01*
X138139Y274547D01*
X141261Y274547D01*
X144145Y273352D01*
X146352Y271145D01*
X147547Y268261D01*
X147547Y265139D01*
X146352Y262255D01*
X146020Y261923D01*
X145967Y261849D01*
X145907Y261779D01*
X145895Y261749D01*
X145876Y261723D01*
X145849Y261636D01*
X145834Y261599D01*
X145825Y261578D01*
X145824Y261574D01*
X145815Y261551D01*
X145811Y261510D01*
X145804Y261488D01*
X145805Y261456D01*
X145797Y261384D01*
X145797Y94216D01*
X145811Y94125D01*
X145819Y94035D01*
X145831Y94005D01*
X145836Y93973D01*
X145879Y93892D01*
X145915Y93808D01*
X145941Y93776D01*
X145952Y93755D01*
X145975Y93733D01*
X146020Y93677D01*
X146352Y93345D01*
X147547Y90461D01*
X147547Y87339D01*
X146352Y84455D01*
X144145Y82248D01*
X141261Y81053D01*
X138139Y81053D01*
X135255Y82248D01*
X133048Y84455D01*
X131853Y87339D01*
X131853Y88116D01*
X131842Y88187D01*
X131840Y88259D01*
X131822Y88308D01*
X131814Y88359D01*
X131780Y88422D01*
X131755Y88490D01*
X131723Y88530D01*
X131698Y88576D01*
X131646Y88626D01*
X131602Y88682D01*
X131558Y88710D01*
X131520Y88746D01*
X131455Y88776D01*
X131395Y88815D01*
X131344Y88827D01*
X131297Y88849D01*
X131226Y88857D01*
X131156Y88875D01*
X131104Y88871D01*
X131053Y88877D01*
X130982Y88861D01*
X130911Y88856D01*
X130863Y88835D01*
X130812Y88824D01*
X130751Y88787D01*
X130685Y88759D01*
X130629Y88715D01*
X130601Y88698D01*
X130586Y88680D01*
X130554Y88655D01*
X127006Y85107D01*
X125597Y84523D01*
X125536Y84486D01*
X125471Y84456D01*
X125432Y84421D01*
X125388Y84394D01*
X125342Y84338D01*
X125290Y84290D01*
X125265Y84244D01*
X125231Y84204D01*
X125206Y84137D01*
X125171Y84074D01*
X125162Y84023D01*
X125143Y83975D01*
X125140Y83903D01*
X125127Y83832D01*
X125135Y83781D01*
X125133Y83729D01*
X125153Y83660D01*
X125163Y83589D01*
X125187Y83543D01*
X125201Y83493D01*
X125242Y83434D01*
X125275Y83370D01*
X125312Y83333D01*
X125342Y83291D01*
X125399Y83248D01*
X125450Y83198D01*
X125513Y83163D01*
X125539Y83144D01*
X125561Y83137D01*
X125597Y83117D01*
X127006Y82533D01*
X130793Y78746D01*
X132843Y73798D01*
X132843Y68442D01*
X130793Y63494D01*
X127006Y59707D01*
X123620Y58304D01*
X123534Y58251D01*
X123445Y58203D01*
X123430Y58186D01*
X123411Y58175D01*
X123347Y58097D01*
X123278Y58023D01*
X123269Y58002D01*
X123254Y57985D01*
X123218Y57891D01*
X123176Y57798D01*
X123174Y57776D01*
X123166Y57756D01*
X123162Y57655D01*
X123152Y57554D01*
X123157Y57532D01*
X123156Y57510D01*
X123184Y57413D01*
X123207Y57314D01*
X123218Y57295D01*
X123224Y57274D01*
X123282Y57191D01*
X123335Y57104D01*
X123352Y57090D01*
X123365Y57072D01*
X123446Y57011D01*
X123524Y56946D01*
X123548Y56935D01*
X123562Y56925D01*
X123593Y56915D01*
X123676Y56877D01*
X123963Y56784D01*
X125637Y55931D01*
X127158Y54826D01*
X128486Y53498D01*
X129591Y51977D01*
X130444Y50303D01*
X131025Y48516D01*
X131226Y47243D01*
X120142Y47243D01*
X120122Y47240D01*
X120103Y47242D01*
X120001Y47220D01*
X119899Y47203D01*
X119882Y47194D01*
X119862Y47190D01*
X119773Y47137D01*
X119682Y47088D01*
X119668Y47074D01*
X119651Y47064D01*
X119584Y46985D01*
X119513Y46910D01*
X119504Y46892D01*
X119491Y46877D01*
X119453Y46781D01*
X119409Y46687D01*
X119407Y46667D01*
X119399Y46649D01*
X119381Y46482D01*
X119381Y44958D01*
X119384Y44938D01*
X119382Y44919D01*
X119404Y44817D01*
X119421Y44715D01*
X119430Y44698D01*
X119434Y44678D01*
X119487Y44589D01*
X119536Y44498D01*
X119550Y44484D01*
X119560Y44467D01*
X119639Y44400D01*
X119714Y44329D01*
X119732Y44320D01*
X119747Y44307D01*
X119843Y44268D01*
X119937Y44225D01*
X119957Y44223D01*
X119975Y44215D01*
X120142Y44197D01*
X131226Y44197D01*
X131025Y42924D01*
X130444Y41137D01*
X129591Y39463D01*
X128486Y37942D01*
X127158Y36614D01*
X125637Y35509D01*
X123963Y34656D01*
X123676Y34563D01*
X123586Y34516D01*
X123494Y34475D01*
X123478Y34460D01*
X123458Y34450D01*
X123387Y34377D01*
X123313Y34309D01*
X123302Y34289D01*
X123287Y34273D01*
X123243Y34182D01*
X123194Y34093D01*
X123190Y34071D01*
X123181Y34051D01*
X123168Y33951D01*
X123150Y33851D01*
X123154Y33829D01*
X123151Y33807D01*
X123171Y33708D01*
X123186Y33608D01*
X123196Y33588D01*
X123201Y33566D01*
X123252Y33479D01*
X123298Y33389D01*
X123314Y33373D01*
X123325Y33354D01*
X123401Y33287D01*
X123473Y33216D01*
X123497Y33203D01*
X123510Y33192D01*
X123540Y33180D01*
X123620Y33136D01*
X127006Y31733D01*
X130793Y27946D01*
X132843Y22998D01*
X132843Y17642D01*
X130793Y12694D01*
X129559Y11460D01*
X129518Y11402D01*
X129468Y11350D01*
X129446Y11303D01*
X129416Y11261D01*
X129395Y11192D01*
X129365Y11127D01*
X129359Y11075D01*
X129344Y11025D01*
X129345Y10954D01*
X129337Y10883D01*
X129349Y10832D01*
X129350Y10780D01*
X129375Y10712D01*
X129390Y10642D01*
X129416Y10597D01*
X129434Y10549D01*
X129479Y10493D01*
X129516Y10431D01*
X129555Y10397D01*
X129588Y10357D01*
X129648Y10318D01*
X129703Y10271D01*
X129751Y10252D01*
X129795Y10224D01*
X129864Y10206D01*
X129931Y10179D01*
X130002Y10171D01*
X130033Y10163D01*
X130057Y10165D01*
X130098Y10161D01*
X193687Y10161D01*
X193758Y10172D01*
X193829Y10174D01*
X193878Y10192D01*
X193930Y10200D01*
X193993Y10234D01*
X194060Y10259D01*
X194101Y10291D01*
X194147Y10316D01*
X194196Y10368D01*
X194252Y10412D01*
X194281Y10456D01*
X194317Y10494D01*
X194347Y10559D01*
X194385Y10619D01*
X194398Y10670D01*
X194420Y10717D01*
X194428Y10788D01*
X194446Y10858D01*
X194441Y10910D01*
X194447Y10961D01*
X194432Y11032D01*
X194426Y11103D01*
X194406Y11151D01*
X194395Y11202D01*
X194358Y11263D01*
X194330Y11329D01*
X194285Y11385D01*
X194269Y11413D01*
X194251Y11428D01*
X194225Y11460D01*
X192916Y12770D01*
X191225Y16851D01*
X191225Y21269D01*
X192916Y25350D01*
X196040Y28474D01*
X200121Y30165D01*
X204539Y30165D01*
X208620Y28474D01*
X211744Y25350D01*
X213435Y21269D01*
X213435Y16851D01*
X211744Y12770D01*
X210435Y11460D01*
X210393Y11402D01*
X210343Y11350D01*
X210322Y11303D01*
X210291Y11261D01*
X210270Y11192D01*
X210240Y11127D01*
X210234Y11075D01*
X210219Y11025D01*
X210221Y10954D01*
X210213Y10883D01*
X210224Y10832D01*
X210225Y10780D01*
X210250Y10712D01*
X210265Y10642D01*
X210292Y10597D01*
X210310Y10549D01*
X210354Y10493D01*
X210391Y10431D01*
X210431Y10397D01*
X210463Y10357D01*
X210524Y10318D01*
X210578Y10271D01*
X210626Y10252D01*
X210670Y10224D01*
X210740Y10206D01*
X210806Y10179D01*
X210878Y10171D01*
X210909Y10163D01*
X210932Y10165D01*
X210973Y10161D01*
X218687Y10161D01*
X218758Y10172D01*
X218829Y10174D01*
X218878Y10192D01*
X218930Y10200D01*
X218993Y10234D01*
X219060Y10259D01*
X219101Y10291D01*
X219147Y10316D01*
X219196Y10368D01*
X219252Y10412D01*
X219281Y10456D01*
X219317Y10494D01*
X219347Y10559D01*
X219385Y10619D01*
X219398Y10670D01*
X219420Y10717D01*
X219428Y10788D01*
X219446Y10858D01*
X219441Y10910D01*
X219447Y10961D01*
X219432Y11032D01*
X219426Y11103D01*
X219406Y11151D01*
X219395Y11202D01*
X219358Y11263D01*
X219330Y11329D01*
X219285Y11385D01*
X219269Y11413D01*
X219251Y11428D01*
X219225Y11460D01*
X217916Y12770D01*
X216225Y16851D01*
X216225Y21269D01*
X217916Y25350D01*
X221040Y28474D01*
X225121Y30165D01*
X229539Y30165D01*
X233620Y28474D01*
X236744Y25350D01*
X238435Y21269D01*
X238435Y16851D01*
X236744Y12770D01*
X235435Y11460D01*
X235393Y11402D01*
X235343Y11350D01*
X235322Y11303D01*
X235291Y11261D01*
X235270Y11192D01*
X235240Y11127D01*
X235234Y11075D01*
X235219Y11025D01*
X235221Y10954D01*
X235213Y10883D01*
X235224Y10832D01*
X235225Y10780D01*
X235250Y10712D01*
X235265Y10642D01*
X235292Y10597D01*
X235310Y10549D01*
X235354Y10493D01*
X235391Y10431D01*
X235431Y10397D01*
X235463Y10357D01*
X235524Y10318D01*
X235578Y10271D01*
X235626Y10252D01*
X235670Y10224D01*
X235740Y10206D01*
X235806Y10179D01*
X235878Y10171D01*
X235909Y10163D01*
X235932Y10165D01*
X235973Y10161D01*
X243687Y10161D01*
X243758Y10172D01*
X243829Y10174D01*
X243878Y10192D01*
X243930Y10200D01*
X243993Y10234D01*
X244060Y10259D01*
X244101Y10291D01*
X244147Y10316D01*
X244196Y10368D01*
X244252Y10412D01*
X244281Y10456D01*
X244317Y10494D01*
X244347Y10559D01*
X244385Y10619D01*
X244398Y10670D01*
X244420Y10717D01*
X244428Y10788D01*
X244446Y10858D01*
X244441Y10910D01*
X244447Y10961D01*
X244432Y11032D01*
X244426Y11103D01*
X244406Y11151D01*
X244395Y11202D01*
X244358Y11263D01*
X244330Y11329D01*
X244285Y11385D01*
X244269Y11413D01*
X244251Y11428D01*
X244225Y11460D01*
X242916Y12770D01*
X241225Y16851D01*
X241225Y21269D01*
X242916Y25350D01*
X246040Y28474D01*
X250121Y30165D01*
X254539Y30165D01*
X258620Y28474D01*
X261744Y25350D01*
X263435Y21269D01*
X263435Y16851D01*
X261744Y12770D01*
X260435Y11460D01*
X260393Y11402D01*
X260343Y11350D01*
X260322Y11303D01*
X260291Y11261D01*
X260270Y11192D01*
X260240Y11127D01*
X260234Y11075D01*
X260219Y11025D01*
X260221Y10954D01*
X260213Y10883D01*
X260224Y10832D01*
X260225Y10780D01*
X260250Y10712D01*
X260265Y10642D01*
X260292Y10597D01*
X260310Y10549D01*
X260354Y10493D01*
X260391Y10431D01*
X260431Y10397D01*
X260463Y10357D01*
X260524Y10318D01*
X260578Y10271D01*
X260626Y10252D01*
X260670Y10224D01*
X260740Y10206D01*
X260806Y10179D01*
X260878Y10171D01*
X260909Y10163D01*
X260932Y10165D01*
X260973Y10161D01*
X277572Y10161D01*
X277643Y10172D01*
X277715Y10174D01*
X277764Y10192D01*
X277815Y10200D01*
X277878Y10234D01*
X277946Y10259D01*
X277986Y10291D01*
X278032Y10316D01*
X278082Y10368D01*
X278138Y10412D01*
X278166Y10456D01*
X278202Y10494D01*
X278232Y10559D01*
X278271Y10619D01*
X278283Y10670D01*
X278305Y10717D01*
X278313Y10788D01*
X278331Y10858D01*
X278327Y10910D01*
X278333Y10961D01*
X278317Y11032D01*
X278312Y11103D01*
X278291Y11151D01*
X278280Y11202D01*
X278243Y11263D01*
X278215Y11329D01*
X278171Y11385D01*
X278154Y11413D01*
X278136Y11428D01*
X278111Y11460D01*
X276877Y12694D01*
X274827Y17642D01*
X274827Y22998D01*
X276877Y27946D01*
X280664Y31733D01*
X285612Y33783D01*
X287227Y33783D01*
X287298Y33794D01*
X287370Y33796D01*
X287419Y33814D01*
X287470Y33822D01*
X287533Y33856D01*
X287601Y33881D01*
X287641Y33913D01*
X287688Y33938D01*
X287737Y33990D01*
X287793Y34034D01*
X287821Y34078D01*
X287857Y34116D01*
X287887Y34181D01*
X287926Y34241D01*
X287939Y34292D01*
X287961Y34339D01*
X287968Y34410D01*
X287986Y34480D01*
X287982Y34532D01*
X287988Y34583D01*
X287972Y34654D01*
X287967Y34725D01*
X287946Y34773D01*
X287935Y34824D01*
X287899Y34885D01*
X287870Y34951D01*
X287826Y35007D01*
X287809Y35035D01*
X287791Y35050D01*
X287766Y35082D01*
X236131Y86716D01*
X235203Y88957D01*
X235203Y251159D01*
X235189Y251249D01*
X235181Y251340D01*
X235169Y251370D01*
X235164Y251402D01*
X235121Y251483D01*
X235085Y251567D01*
X235059Y251599D01*
X235048Y251619D01*
X235025Y251642D01*
X234980Y251698D01*
X229243Y257435D01*
X229149Y257502D01*
X229054Y257573D01*
X229048Y257575D01*
X229043Y257578D01*
X228932Y257613D01*
X228820Y257649D01*
X228814Y257649D01*
X228808Y257651D01*
X228691Y257648D01*
X228574Y257647D01*
X228567Y257645D01*
X228562Y257644D01*
X228545Y257638D01*
X228413Y257600D01*
X224626Y256031D01*
X207174Y256031D01*
X203253Y257655D01*
X200251Y260657D01*
X198627Y264578D01*
X198627Y268822D01*
X200251Y272743D01*
X203253Y275745D01*
X207174Y277369D01*
X224626Y277369D01*
X228547Y275745D01*
X231549Y272743D01*
X231761Y272231D01*
X231809Y272153D01*
X231850Y272072D01*
X231873Y272050D01*
X231890Y272022D01*
X231946Y271976D01*
X246469Y257454D01*
X247397Y255213D01*
X247397Y93011D01*
X247411Y92921D01*
X247419Y92830D01*
X247431Y92800D01*
X247436Y92768D01*
X247479Y92687D01*
X247515Y92603D01*
X247541Y92571D01*
X247552Y92551D01*
X247575Y92528D01*
X247620Y92472D01*
X256764Y83328D01*
X256822Y83286D01*
X256874Y83237D01*
X256921Y83215D01*
X256963Y83185D01*
X257032Y83164D01*
X257097Y83133D01*
X257149Y83128D01*
X257199Y83112D01*
X257270Y83114D01*
X257341Y83106D01*
X257392Y83117D01*
X257444Y83119D01*
X257512Y83143D01*
X257582Y83159D01*
X257627Y83185D01*
X257675Y83203D01*
X257731Y83248D01*
X257793Y83285D01*
X257827Y83324D01*
X257867Y83357D01*
X257906Y83417D01*
X257953Y83472D01*
X257972Y83520D01*
X258000Y83564D01*
X258018Y83633D01*
X258045Y83700D01*
X258053Y83771D01*
X258061Y83802D01*
X258059Y83826D01*
X258063Y83867D01*
X258063Y209314D01*
X258049Y209405D01*
X258041Y209495D01*
X258029Y209525D01*
X258024Y209557D01*
X257981Y209638D01*
X257945Y209722D01*
X257919Y209754D01*
X257908Y209775D01*
X257885Y209797D01*
X257840Y209853D01*
X257508Y210185D01*
X256313Y213069D01*
X256313Y216191D01*
X257508Y219075D01*
X259715Y221282D01*
X262599Y222477D01*
X265721Y222477D01*
X268605Y221282D01*
X270812Y219075D01*
X272007Y216191D01*
X272007Y213069D01*
X270812Y210185D01*
X270480Y209853D01*
X270427Y209779D01*
X270367Y209709D01*
X270355Y209679D01*
X270336Y209653D01*
X270309Y209566D01*
X270275Y209481D01*
X270271Y209440D01*
X270264Y209418D01*
X270265Y209386D01*
X270257Y209314D01*
X270257Y87931D01*
X270271Y87841D01*
X270279Y87750D01*
X270291Y87720D01*
X270296Y87688D01*
X270339Y87607D01*
X270375Y87523D01*
X270401Y87491D01*
X270412Y87471D01*
X270435Y87448D01*
X270480Y87392D01*
X274761Y83111D01*
X274840Y83054D01*
X274915Y82992D01*
X274939Y82983D01*
X274961Y82968D01*
X275054Y82939D01*
X275144Y82904D01*
X275171Y82903D01*
X275196Y82895D01*
X275293Y82898D01*
X275390Y82894D01*
X275415Y82901D01*
X275441Y82902D01*
X275533Y82935D01*
X275626Y82962D01*
X275648Y82977D01*
X275673Y82986D01*
X275749Y83047D01*
X275829Y83103D01*
X275844Y83124D01*
X275865Y83140D01*
X275917Y83222D01*
X275975Y83300D01*
X275983Y83325D01*
X275998Y83347D01*
X276021Y83441D01*
X276051Y83534D01*
X276051Y83560D01*
X276058Y83585D01*
X276050Y83682D01*
X276049Y83780D01*
X276040Y83811D01*
X276038Y83831D01*
X276026Y83861D01*
X276002Y83941D01*
X274827Y86778D01*
X274827Y91022D01*
X276451Y94943D01*
X279453Y97945D01*
X283374Y99569D01*
X300826Y99569D01*
X304747Y97945D01*
X307749Y94943D01*
X309373Y91022D01*
X309373Y86778D01*
X307749Y82857D01*
X304747Y79855D01*
X300826Y78231D01*
X283374Y78231D01*
X280537Y79406D01*
X280442Y79429D01*
X280349Y79457D01*
X280323Y79457D01*
X280297Y79463D01*
X280201Y79453D01*
X280103Y79451D01*
X280079Y79442D01*
X280053Y79439D01*
X279963Y79400D01*
X279872Y79366D01*
X279852Y79350D01*
X279828Y79339D01*
X279756Y79274D01*
X279680Y79213D01*
X279666Y79191D01*
X279647Y79173D01*
X279600Y79088D01*
X279547Y79006D01*
X279541Y78980D01*
X279528Y78958D01*
X279511Y78862D01*
X279487Y78767D01*
X279489Y78741D01*
X279484Y78715D01*
X279499Y78619D01*
X279506Y78522D01*
X279516Y78498D01*
X279520Y78472D01*
X279564Y78385D01*
X279602Y78296D01*
X279623Y78270D01*
X279632Y78253D01*
X279655Y78230D01*
X279707Y78165D01*
X288052Y69820D01*
X288126Y69767D01*
X288196Y69707D01*
X288226Y69695D01*
X288252Y69676D01*
X288339Y69649D01*
X288424Y69615D01*
X288465Y69611D01*
X288487Y69604D01*
X288519Y69605D01*
X288591Y69597D01*
X314903Y69597D01*
X317144Y68669D01*
X344259Y41554D01*
X345187Y39313D01*
X345187Y32875D01*
X345206Y32761D01*
X345223Y32644D01*
X345225Y32639D01*
X345226Y32632D01*
X345281Y32530D01*
X345334Y32425D01*
X345339Y32421D01*
X345342Y32415D01*
X345426Y32335D01*
X345510Y32253D01*
X345516Y32249D01*
X345520Y32246D01*
X345537Y32238D01*
X345657Y32172D01*
X346716Y31733D01*
X350503Y27946D01*
X351087Y26537D01*
X351124Y26476D01*
X351154Y26411D01*
X351189Y26372D01*
X351216Y26328D01*
X351272Y26282D01*
X351320Y26230D01*
X351366Y26205D01*
X351406Y26171D01*
X351473Y26146D01*
X351536Y26111D01*
X351587Y26102D01*
X351635Y26083D01*
X351707Y26080D01*
X351778Y26067D01*
X351829Y26075D01*
X351881Y26073D01*
X351950Y26093D01*
X352021Y26103D01*
X352067Y26127D01*
X352117Y26141D01*
X352176Y26182D01*
X352240Y26215D01*
X352277Y26252D01*
X352319Y26282D01*
X352362Y26339D01*
X352412Y26390D01*
X352447Y26453D01*
X352466Y26479D01*
X352473Y26501D01*
X352493Y26537D01*
X353077Y27946D01*
X356864Y31733D01*
X361812Y33783D01*
X367168Y33783D01*
X372116Y31733D01*
X375903Y27946D01*
X376487Y26537D01*
X376524Y26476D01*
X376554Y26411D01*
X376589Y26372D01*
X376616Y26328D01*
X376672Y26282D01*
X376720Y26230D01*
X376766Y26205D01*
X376806Y26171D01*
X376873Y26146D01*
X376936Y26111D01*
X376987Y26102D01*
X377035Y26083D01*
X377107Y26080D01*
X377178Y26067D01*
X377229Y26075D01*
X377281Y26073D01*
X377350Y26093D01*
X377421Y26103D01*
X377467Y26127D01*
X377517Y26141D01*
X377576Y26182D01*
X377640Y26215D01*
X377677Y26252D01*
X377719Y26282D01*
X377762Y26339D01*
X377812Y26390D01*
X377847Y26453D01*
X377866Y26479D01*
X377873Y26501D01*
X377893Y26537D01*
X378477Y27946D01*
X382264Y31733D01*
X387212Y33783D01*
X392568Y33783D01*
X397516Y31733D01*
X401303Y27946D01*
X402706Y24560D01*
X402759Y24474D01*
X402807Y24385D01*
X402824Y24370D01*
X402835Y24351D01*
X402913Y24287D01*
X402987Y24218D01*
X403008Y24209D01*
X403025Y24194D01*
X403119Y24158D01*
X403212Y24116D01*
X403234Y24114D01*
X403254Y24106D01*
X403355Y24102D01*
X403456Y24092D01*
X403478Y24097D01*
X403500Y24096D01*
X403597Y24124D01*
X403696Y24147D01*
X403715Y24158D01*
X403736Y24164D01*
X403819Y24222D01*
X403906Y24275D01*
X403920Y24292D01*
X403938Y24305D01*
X403999Y24386D01*
X404064Y24464D01*
X404075Y24488D01*
X404085Y24502D01*
X404095Y24533D01*
X404133Y24616D01*
X404226Y24903D01*
X405079Y26577D01*
X406184Y28098D01*
X407512Y29426D01*
X409033Y30531D01*
X410707Y31384D01*
X412494Y31965D01*
X413767Y32166D01*
X413767Y21082D01*
X413770Y21062D01*
X413768Y21043D01*
X413790Y20941D01*
X413807Y20839D01*
X413816Y20822D01*
X413820Y20802D01*
X413873Y20713D01*
X413922Y20622D01*
X413936Y20608D01*
X413946Y20591D01*
X414025Y20524D01*
X414100Y20453D01*
X414118Y20444D01*
X414133Y20431D01*
X414229Y20393D01*
X414323Y20349D01*
X414343Y20347D01*
X414361Y20339D01*
X414528Y20321D01*
X415291Y20321D01*
X415291Y19558D01*
X415294Y19538D01*
X415292Y19519D01*
X415314Y19417D01*
X415331Y19315D01*
X415340Y19298D01*
X415344Y19278D01*
X415397Y19189D01*
X415446Y19098D01*
X415460Y19084D01*
X415470Y19067D01*
X415549Y19000D01*
X415624Y18929D01*
X415642Y18920D01*
X415657Y18907D01*
X415753Y18868D01*
X415847Y18825D01*
X415867Y18823D01*
X415885Y18815D01*
X416052Y18797D01*
X427136Y18797D01*
X426935Y17524D01*
X426354Y15737D01*
X425501Y14063D01*
X424396Y12542D01*
X423314Y11460D01*
X423272Y11402D01*
X423223Y11350D01*
X423201Y11303D01*
X423171Y11261D01*
X423150Y11192D01*
X423119Y11127D01*
X423114Y11075D01*
X423098Y11025D01*
X423100Y10954D01*
X423092Y10883D01*
X423103Y10832D01*
X423105Y10780D01*
X423129Y10712D01*
X423144Y10642D01*
X423171Y10597D01*
X423189Y10549D01*
X423234Y10493D01*
X423271Y10431D01*
X423310Y10397D01*
X423343Y10357D01*
X423403Y10318D01*
X423458Y10271D01*
X423506Y10252D01*
X423550Y10224D01*
X423619Y10206D01*
X423686Y10179D01*
X423757Y10171D01*
X423788Y10163D01*
X423812Y10165D01*
X423852Y10161D01*
X489078Y10161D01*
X489098Y10164D01*
X489117Y10162D01*
X489219Y10184D01*
X489321Y10200D01*
X489338Y10210D01*
X489358Y10214D01*
X489447Y10267D01*
X489538Y10316D01*
X489552Y10330D01*
X489569Y10340D01*
X489636Y10419D01*
X489708Y10494D01*
X489716Y10512D01*
X489729Y10527D01*
X489768Y10623D01*
X489811Y10717D01*
X489813Y10737D01*
X489821Y10755D01*
X489839Y10922D01*
X489839Y460958D01*
X489828Y461028D01*
X489826Y461100D01*
X489808Y461149D01*
X489800Y461200D01*
X489766Y461264D01*
X489741Y461331D01*
X489709Y461372D01*
X489684Y461418D01*
X489632Y461467D01*
X489588Y461523D01*
X489544Y461551D01*
X489506Y461587D01*
X489441Y461617D01*
X489381Y461656D01*
X489330Y461669D01*
X489283Y461691D01*
X489212Y461699D01*
X489142Y461716D01*
X489090Y461712D01*
X489039Y461718D01*
X488968Y461703D01*
X488897Y461697D01*
X488849Y461677D01*
X488798Y461666D01*
X488737Y461629D01*
X488671Y461601D01*
X488615Y461556D01*
X488587Y461539D01*
X488572Y461522D01*
X488540Y461496D01*
X487838Y460794D01*
X486317Y459689D01*
X484643Y458836D01*
X482856Y458255D01*
X481583Y458054D01*
X481583Y469138D01*
X481580Y469158D01*
X481582Y469177D01*
X481560Y469279D01*
X481543Y469381D01*
X481534Y469398D01*
X481530Y469418D01*
X481477Y469507D01*
X481428Y469598D01*
X481414Y469612D01*
X481404Y469629D01*
X481325Y469696D01*
X481250Y469767D01*
X481232Y469776D01*
X481217Y469789D01*
X481121Y469827D01*
X481027Y469871D01*
X481007Y469873D01*
X480989Y469881D01*
X480822Y469899D01*
X480059Y469899D01*
X480059Y469901D01*
X480822Y469901D01*
X480842Y469904D01*
X480861Y469902D01*
X480963Y469924D01*
X481065Y469941D01*
X481082Y469950D01*
X481102Y469954D01*
X481191Y470007D01*
X481282Y470056D01*
X481296Y470070D01*
X481313Y470080D01*
X481380Y470159D01*
X481451Y470234D01*
X481460Y470252D01*
X481473Y470267D01*
X481512Y470363D01*
X481555Y470457D01*
X481557Y470477D01*
X481565Y470495D01*
X481583Y470662D01*
X481583Y481746D01*
X482856Y481545D01*
X484643Y480964D01*
X486317Y480111D01*
X487838Y479006D01*
X488540Y478304D01*
X488598Y478262D01*
X488650Y478213D01*
X488697Y478191D01*
X488739Y478161D01*
X488808Y478140D01*
X488873Y478109D01*
X488925Y478104D01*
X488975Y478088D01*
X489046Y478090D01*
X489117Y478082D01*
X489168Y478093D01*
X489220Y478095D01*
X489288Y478119D01*
X489358Y478134D01*
X489403Y478161D01*
X489451Y478179D01*
X489507Y478224D01*
X489569Y478261D01*
X489603Y478300D01*
X489643Y478333D01*
X489682Y478393D01*
X489729Y478448D01*
X489748Y478496D01*
X489776Y478540D01*
X489794Y478609D01*
X489821Y478676D01*
X489829Y478747D01*
X489837Y478778D01*
X489835Y478802D01*
X489839Y478842D01*
X489839Y489078D01*
X489836Y489098D01*
X489838Y489117D01*
X489816Y489219D01*
X489800Y489321D01*
X489790Y489338D01*
X489786Y489358D01*
X489733Y489447D01*
X489684Y489538D01*
X489670Y489552D01*
X489660Y489569D01*
X489581Y489636D01*
X489506Y489708D01*
X489488Y489716D01*
X489473Y489729D01*
X489377Y489768D01*
X489283Y489811D01*
X489263Y489813D01*
X489245Y489821D01*
X489078Y489839D01*
X402116Y489839D01*
X402046Y489828D01*
X401974Y489826D01*
X401925Y489808D01*
X401874Y489800D01*
X401810Y489766D01*
X401743Y489741D01*
X401702Y489709D01*
X401656Y489684D01*
X401607Y489632D01*
X401551Y489588D01*
X401523Y489544D01*
X401487Y489506D01*
X401457Y489441D01*
X401418Y489381D01*
X401405Y489330D01*
X401383Y489283D01*
X401375Y489212D01*
X401358Y489142D01*
X401362Y489090D01*
X401356Y489039D01*
X401371Y488968D01*
X401377Y488897D01*
X401397Y488849D01*
X401408Y488798D01*
X401445Y488737D01*
X401473Y488671D01*
X401518Y488615D01*
X401535Y488587D01*
X401552Y488572D01*
X401578Y488540D01*
X403099Y487019D01*
X403099Y478181D01*
X396849Y471931D01*
X388011Y471931D01*
X383662Y476280D01*
X383588Y476333D01*
X383518Y476393D01*
X383488Y476405D01*
X383462Y476424D01*
X383375Y476451D01*
X383290Y476485D01*
X383249Y476489D01*
X383227Y476496D01*
X383195Y476495D01*
X383124Y476503D01*
X371141Y476503D01*
X371051Y476489D01*
X370960Y476481D01*
X370930Y476469D01*
X370898Y476464D01*
X370817Y476421D01*
X370733Y476385D01*
X370701Y476359D01*
X370681Y476348D01*
X370658Y476325D01*
X370602Y476280D01*
X336520Y442198D01*
X336467Y442124D01*
X336407Y442054D01*
X336395Y442024D01*
X336376Y441998D01*
X336349Y441911D01*
X336315Y441826D01*
X336311Y441785D01*
X336304Y441763D01*
X336305Y441731D01*
X336297Y441659D01*
X336297Y428406D01*
X336311Y428316D01*
X336319Y428225D01*
X336331Y428196D01*
X336336Y428164D01*
X336379Y428083D01*
X336415Y427999D01*
X336441Y427967D01*
X336452Y427946D01*
X336475Y427924D01*
X336520Y427868D01*
X340869Y423519D01*
X340869Y414681D01*
X334619Y408431D01*
X325781Y408431D01*
X321432Y412780D01*
X321358Y412833D01*
X321288Y412893D01*
X321258Y412905D01*
X321232Y412924D01*
X321145Y412951D01*
X321060Y412985D01*
X321019Y412989D01*
X320997Y412996D01*
X320965Y412995D01*
X320894Y413003D01*
X308010Y413003D01*
X307920Y412989D01*
X307829Y412981D01*
X307800Y412969D01*
X307768Y412964D01*
X307687Y412921D01*
X307603Y412885D01*
X307571Y412859D01*
X307550Y412848D01*
X307528Y412825D01*
X307472Y412780D01*
X304747Y410055D01*
X300826Y408431D01*
X283374Y408431D01*
X279453Y410055D01*
X276451Y413057D01*
X274827Y416978D01*
X274827Y421222D01*
X276451Y425143D01*
X279453Y428145D01*
X283374Y429769D01*
X300826Y429769D01*
X304747Y428145D01*
X307472Y425420D01*
X307546Y425367D01*
X307616Y425307D01*
X307646Y425295D01*
X307672Y425276D01*
X307759Y425249D01*
X307844Y425215D01*
X307885Y425211D01*
X307907Y425204D01*
X307939Y425205D01*
X308010Y425197D01*
X320894Y425197D01*
X320984Y425211D01*
X321075Y425219D01*
X321104Y425231D01*
X321136Y425236D01*
X321217Y425279D01*
X321301Y425315D01*
X321333Y425341D01*
X321354Y425352D01*
X321376Y425375D01*
X321432Y425420D01*
X323880Y427868D01*
X323933Y427942D01*
X323993Y428012D01*
X324005Y428042D01*
X324024Y428068D01*
X324051Y428155D01*
X324085Y428240D01*
X324089Y428281D01*
X324096Y428303D01*
X324095Y428335D01*
X324103Y428406D01*
X324103Y445713D01*
X325031Y447954D01*
X364846Y487769D01*
X366310Y488375D01*
X366393Y488426D01*
X366479Y488472D01*
X366497Y488490D01*
X366519Y488504D01*
X366581Y488580D01*
X366648Y488650D01*
X366659Y488674D01*
X366676Y488694D01*
X366711Y488785D01*
X366752Y488873D01*
X366755Y488899D01*
X366764Y488923D01*
X366768Y489021D01*
X366779Y489117D01*
X366773Y489143D01*
X366774Y489169D01*
X366747Y489263D01*
X366727Y489358D01*
X366713Y489380D01*
X366706Y489405D01*
X366650Y489485D01*
X366600Y489569D01*
X366581Y489586D01*
X366566Y489607D01*
X366487Y489666D01*
X366413Y489729D01*
X366389Y489739D01*
X366368Y489754D01*
X366276Y489784D01*
X366185Y489821D01*
X366153Y489824D01*
X366134Y489830D01*
X366101Y489830D01*
X366019Y489839D01*
X126526Y489839D01*
X126456Y489828D01*
X126384Y489826D01*
X126335Y489808D01*
X126284Y489800D01*
X126220Y489766D01*
X126153Y489741D01*
X126112Y489709D01*
X126066Y489684D01*
X126017Y489632D01*
X125961Y489588D01*
X125933Y489544D01*
X125897Y489506D01*
X125867Y489441D01*
X125828Y489381D01*
X125815Y489330D01*
X125793Y489283D01*
X125785Y489212D01*
X125768Y489142D01*
X125772Y489090D01*
X125766Y489039D01*
X125781Y488968D01*
X125787Y488897D01*
X125807Y488849D01*
X125818Y488798D01*
X125855Y488737D01*
X125883Y488671D01*
X125928Y488615D01*
X125945Y488587D01*
X125962Y488572D01*
X125988Y488540D01*
X127509Y487019D01*
X127509Y478181D01*
X121259Y471931D01*
X112421Y471931D01*
X106171Y478181D01*
X106171Y487019D01*
X107692Y488540D01*
X107734Y488598D01*
X107783Y488650D01*
X107805Y488697D01*
X107835Y488739D01*
X107857Y488808D01*
X107887Y488873D01*
X107892Y488925D01*
X107908Y488975D01*
X107906Y489046D01*
X107914Y489117D01*
X107903Y489168D01*
X107901Y489220D01*
X107877Y489288D01*
X107862Y489358D01*
X107835Y489403D01*
X107817Y489451D01*
X107772Y489507D01*
X107735Y489569D01*
X107696Y489603D01*
X107663Y489643D01*
X107603Y489682D01*
X107548Y489729D01*
X107500Y489748D01*
X107456Y489776D01*
X107387Y489794D01*
X107320Y489821D01*
X107249Y489829D01*
X107218Y489837D01*
X107195Y489835D01*
X107154Y489839D01*
X10922Y489839D01*
X10902Y489836D01*
X10883Y489838D01*
X10781Y489816D01*
X10679Y489800D01*
X10662Y489790D01*
X10642Y489786D01*
X10553Y489733D01*
X10462Y489684D01*
X10448Y489670D01*
X10431Y489660D01*
X10364Y489581D01*
X10292Y489506D01*
X10284Y489488D01*
X10271Y489473D01*
X10232Y489377D01*
X10189Y489283D01*
X10187Y489263D01*
X10179Y489245D01*
X10161Y489078D01*
X10161Y477192D01*
X10172Y477122D01*
X10174Y477050D01*
X10192Y477001D01*
X10200Y476950D01*
X10234Y476886D01*
X10259Y476819D01*
X10291Y476778D01*
X10316Y476732D01*
X10368Y476683D01*
X10412Y476627D01*
X10456Y476599D01*
X10494Y476563D01*
X10559Y476533D01*
X10619Y476494D01*
X10670Y476481D01*
X10717Y476459D01*
X10788Y476451D01*
X10858Y476434D01*
X10910Y476438D01*
X10961Y476432D01*
X11032Y476447D01*
X11103Y476453D01*
X11151Y476473D01*
X11202Y476484D01*
X11263Y476521D01*
X11329Y476549D01*
X11385Y476594D01*
X11413Y476611D01*
X11428Y476628D01*
X11460Y476654D01*
X12542Y477736D01*
X14063Y478841D01*
X15737Y479694D01*
X17524Y480275D01*
X18797Y480476D01*
X18797Y469392D01*
X18800Y469372D01*
X18798Y469353D01*
X18820Y469251D01*
X18837Y469149D01*
X18846Y469132D01*
X18850Y469112D01*
X18903Y469023D01*
X18952Y468932D01*
X18966Y468918D01*
X18976Y468901D01*
X19055Y468834D01*
X19130Y468763D01*
X19148Y468754D01*
X19163Y468741D01*
X19259Y468703D01*
X19353Y468659D01*
X19373Y468657D01*
X19391Y468649D01*
X19558Y468631D01*
X20321Y468631D01*
X20321Y468629D01*
X19558Y468629D01*
X19538Y468626D01*
X19519Y468628D01*
X19417Y468606D01*
X19315Y468589D01*
X19298Y468580D01*
X19278Y468576D01*
X19189Y468523D01*
X19098Y468474D01*
X19084Y468460D01*
X19067Y468450D01*
X19000Y468371D01*
X18929Y468296D01*
X18920Y468278D01*
X18907Y468263D01*
X18868Y468167D01*
X18825Y468073D01*
X18823Y468053D01*
X18815Y468035D01*
X18797Y467868D01*
X18797Y456784D01*
X17524Y456985D01*
X15737Y457566D01*
X14063Y458419D01*
X12542Y459524D01*
X11460Y460606D01*
X11402Y460648D01*
X11350Y460697D01*
X11329Y460707D01*
X11325Y460710D01*
X11302Y460720D01*
X11261Y460749D01*
X11192Y460770D01*
X11127Y460801D01*
X11075Y460806D01*
X11025Y460822D01*
X10954Y460820D01*
X10883Y460828D01*
X10832Y460817D01*
X10780Y460815D01*
X10712Y460791D01*
X10642Y460776D01*
X10597Y460749D01*
X10549Y460731D01*
X10493Y460686D01*
X10431Y460649D01*
X10397Y460610D01*
X10357Y460577D01*
X10318Y460517D01*
X10294Y460489D01*
X10292Y460488D01*
X10292Y460487D01*
X10271Y460462D01*
X10252Y460414D01*
X10224Y460370D01*
X10206Y460302D01*
X10189Y460264D01*
X10188Y460256D01*
X10179Y460234D01*
X10171Y460163D01*
X10163Y460132D01*
X10165Y460108D01*
X10161Y460068D01*
X10161Y10922D01*
X10164Y10902D01*
X10162Y10883D01*
X10184Y10781D01*
X10200Y10679D01*
X10210Y10662D01*
X10214Y10642D01*
X10267Y10553D01*
X10316Y10462D01*
X10330Y10448D01*
X10340Y10431D01*
X10419Y10364D01*
X10494Y10292D01*
X10512Y10284D01*
X10527Y10271D01*
X10623Y10232D01*
X10717Y10189D01*
X10737Y10187D01*
X10755Y10179D01*
X10922Y10161D01*
X108662Y10161D01*
X108733Y10172D01*
G37*
%LPC*%
G36*
X207174Y306831D02*
X207174Y306831D01*
X203253Y308455D01*
X200251Y311457D01*
X198627Y315378D01*
X198627Y319622D01*
X200251Y323543D01*
X203253Y326545D01*
X207174Y328169D01*
X224626Y328169D01*
X228547Y326545D01*
X231272Y323820D01*
X231346Y323767D01*
X231416Y323707D01*
X231446Y323695D01*
X231472Y323676D01*
X231559Y323649D01*
X231644Y323615D01*
X231685Y323611D01*
X231707Y323604D01*
X231739Y323605D01*
X231810Y323597D01*
X238459Y323597D01*
X238549Y323611D01*
X238640Y323619D01*
X238670Y323631D01*
X238702Y323636D01*
X238783Y323679D01*
X238867Y323715D01*
X238899Y323741D01*
X238919Y323752D01*
X238942Y323775D01*
X238998Y323820D01*
X260380Y345202D01*
X260433Y345276D01*
X260493Y345346D01*
X260505Y345376D01*
X260524Y345402D01*
X260551Y345489D01*
X260585Y345574D01*
X260589Y345615D01*
X260596Y345637D01*
X260595Y345669D01*
X260603Y345741D01*
X260603Y433013D01*
X261531Y435254D01*
X291829Y465551D01*
X291897Y465646D01*
X291967Y465740D01*
X291969Y465746D01*
X291972Y465751D01*
X292007Y465862D01*
X292043Y465974D01*
X292043Y465980D01*
X292045Y465986D01*
X292042Y466103D01*
X292041Y466220D01*
X292039Y466227D01*
X292038Y466232D01*
X292032Y466249D01*
X291994Y466381D01*
X291533Y467493D01*
X291496Y467554D01*
X291466Y467619D01*
X291431Y467658D01*
X291404Y467702D01*
X291348Y467748D01*
X291300Y467800D01*
X291254Y467825D01*
X291214Y467859D01*
X291147Y467884D01*
X291084Y467919D01*
X291033Y467928D01*
X290985Y467947D01*
X290913Y467950D01*
X290842Y467963D01*
X290791Y467955D01*
X290739Y467957D01*
X290670Y467937D01*
X290599Y467927D01*
X290553Y467903D01*
X290503Y467889D01*
X290444Y467848D01*
X290380Y467815D01*
X290343Y467778D01*
X290301Y467748D01*
X290258Y467691D01*
X290208Y467640D01*
X290173Y467577D01*
X290154Y467551D01*
X290147Y467529D01*
X290127Y467493D01*
X289543Y466084D01*
X285756Y462297D01*
X280808Y460247D01*
X278685Y460247D01*
X278595Y460233D01*
X278504Y460225D01*
X278474Y460213D01*
X278442Y460208D01*
X278361Y460165D01*
X278277Y460129D01*
X278245Y460103D01*
X278225Y460092D01*
X278202Y460069D01*
X278146Y460024D01*
X247620Y429498D01*
X247567Y429424D01*
X247507Y429354D01*
X247495Y429324D01*
X247476Y429298D01*
X247449Y429211D01*
X247415Y429126D01*
X247411Y429085D01*
X247404Y429063D01*
X247405Y429031D01*
X247397Y428959D01*
X247397Y354387D01*
X246469Y352146D01*
X231989Y337667D01*
X231964Y337651D01*
X231905Y337581D01*
X231842Y337516D01*
X231822Y337480D01*
X231807Y337462D01*
X231795Y337432D01*
X231761Y337369D01*
X231549Y336857D01*
X228547Y333855D01*
X224626Y332231D01*
X207174Y332231D01*
X203253Y333855D01*
X200251Y336857D01*
X198627Y340778D01*
X198627Y345022D01*
X200251Y348943D01*
X203253Y351945D01*
X207174Y353569D01*
X224626Y353569D01*
X228413Y352000D01*
X228480Y351984D01*
X228490Y351980D01*
X228503Y351979D01*
X228527Y351973D01*
X228640Y351945D01*
X228647Y351945D01*
X228653Y351944D01*
X228769Y351955D01*
X228886Y351964D01*
X228891Y351966D01*
X228898Y351967D01*
X229005Y352015D01*
X229112Y352060D01*
X229118Y352065D01*
X229122Y352067D01*
X229136Y352080D01*
X229179Y352114D01*
X229185Y352117D01*
X229191Y352124D01*
X229243Y352165D01*
X234980Y357902D01*
X235033Y357976D01*
X235093Y358046D01*
X235105Y358076D01*
X235124Y358102D01*
X235151Y358189D01*
X235185Y358274D01*
X235189Y358315D01*
X235196Y358337D01*
X235195Y358369D01*
X235203Y358441D01*
X235203Y433013D01*
X236131Y435254D01*
X266429Y465551D01*
X266496Y465645D01*
X266567Y465740D01*
X266569Y465746D01*
X266572Y465751D01*
X266607Y465862D01*
X266643Y465974D01*
X266643Y465980D01*
X266645Y465986D01*
X266642Y466103D01*
X266641Y466220D01*
X266639Y466227D01*
X266638Y466232D01*
X266632Y466249D01*
X266594Y466381D01*
X265314Y469470D01*
X265261Y469556D01*
X265213Y469645D01*
X265196Y469660D01*
X265185Y469679D01*
X265107Y469743D01*
X265033Y469812D01*
X265012Y469821D01*
X264995Y469836D01*
X264901Y469872D01*
X264808Y469914D01*
X264786Y469916D01*
X264766Y469924D01*
X264665Y469928D01*
X264564Y469938D01*
X264542Y469933D01*
X264520Y469934D01*
X264423Y469906D01*
X264324Y469883D01*
X264305Y469872D01*
X264284Y469866D01*
X264201Y469808D01*
X264114Y469755D01*
X264100Y469738D01*
X264082Y469725D01*
X264021Y469644D01*
X263956Y469566D01*
X263945Y469542D01*
X263935Y469528D01*
X263925Y469497D01*
X263887Y469414D01*
X263794Y469127D01*
X262941Y467453D01*
X261836Y465932D01*
X260508Y464604D01*
X258987Y463499D01*
X257313Y462646D01*
X255526Y462065D01*
X254253Y461864D01*
X254253Y472948D01*
X254250Y472968D01*
X254252Y472987D01*
X254230Y473089D01*
X254213Y473191D01*
X254204Y473208D01*
X254200Y473228D01*
X254147Y473317D01*
X254098Y473408D01*
X254084Y473422D01*
X254074Y473439D01*
X253995Y473506D01*
X253920Y473577D01*
X253902Y473586D01*
X253887Y473599D01*
X253791Y473637D01*
X253697Y473681D01*
X253677Y473683D01*
X253659Y473691D01*
X253492Y473709D01*
X251968Y473709D01*
X251948Y473706D01*
X251929Y473708D01*
X251827Y473686D01*
X251725Y473669D01*
X251708Y473660D01*
X251688Y473656D01*
X251599Y473603D01*
X251508Y473554D01*
X251494Y473540D01*
X251477Y473530D01*
X251410Y473451D01*
X251339Y473376D01*
X251330Y473358D01*
X251317Y473343D01*
X251278Y473247D01*
X251235Y473153D01*
X251233Y473133D01*
X251225Y473115D01*
X251207Y472948D01*
X251207Y461864D01*
X249934Y462065D01*
X248147Y462646D01*
X246473Y463499D01*
X244952Y464604D01*
X243624Y465932D01*
X242519Y467453D01*
X241666Y469127D01*
X241573Y469414D01*
X241526Y469504D01*
X241485Y469596D01*
X241470Y469612D01*
X241460Y469632D01*
X241387Y469703D01*
X241319Y469777D01*
X241299Y469788D01*
X241283Y469803D01*
X241192Y469847D01*
X241103Y469896D01*
X241081Y469900D01*
X241061Y469909D01*
X240961Y469922D01*
X240861Y469940D01*
X240839Y469936D01*
X240817Y469939D01*
X240718Y469919D01*
X240618Y469904D01*
X240598Y469894D01*
X240576Y469889D01*
X240489Y469838D01*
X240399Y469792D01*
X240383Y469776D01*
X240364Y469765D01*
X240297Y469689D01*
X240226Y469617D01*
X240213Y469593D01*
X240202Y469580D01*
X240190Y469550D01*
X240146Y469470D01*
X238743Y466084D01*
X234956Y462297D01*
X230008Y460247D01*
X224652Y460247D01*
X219704Y462297D01*
X215917Y466084D01*
X215333Y467493D01*
X215296Y467554D01*
X215266Y467619D01*
X215231Y467658D01*
X215204Y467702D01*
X215148Y467748D01*
X215100Y467800D01*
X215054Y467825D01*
X215014Y467859D01*
X214947Y467884D01*
X214884Y467919D01*
X214833Y467928D01*
X214785Y467947D01*
X214713Y467950D01*
X214642Y467963D01*
X214591Y467955D01*
X214539Y467957D01*
X214470Y467937D01*
X214399Y467927D01*
X214353Y467903D01*
X214303Y467889D01*
X214244Y467848D01*
X214180Y467815D01*
X214143Y467778D01*
X214101Y467748D01*
X214058Y467691D01*
X214008Y467640D01*
X213973Y467577D01*
X213954Y467551D01*
X213947Y467529D01*
X213927Y467493D01*
X213343Y466084D01*
X209556Y462297D01*
X208497Y461858D01*
X208397Y461796D01*
X208297Y461737D01*
X208293Y461732D01*
X208288Y461728D01*
X208213Y461638D01*
X208137Y461550D01*
X208135Y461544D01*
X208131Y461539D01*
X208089Y461431D01*
X208045Y461321D01*
X208044Y461314D01*
X208043Y461309D01*
X208042Y461291D01*
X208027Y461155D01*
X208027Y435911D01*
X208041Y435821D01*
X208049Y435730D01*
X208061Y435700D01*
X208066Y435668D01*
X208109Y435587D01*
X208145Y435503D01*
X208171Y435471D01*
X208182Y435451D01*
X208205Y435428D01*
X208250Y435372D01*
X213630Y429992D01*
X213704Y429939D01*
X213774Y429879D01*
X213804Y429867D01*
X213830Y429848D01*
X213917Y429821D01*
X214002Y429787D01*
X214043Y429783D01*
X214065Y429776D01*
X214097Y429777D01*
X214169Y429769D01*
X224626Y429769D01*
X228547Y428145D01*
X231549Y425143D01*
X233173Y421222D01*
X233173Y416978D01*
X231549Y413057D01*
X228547Y410055D01*
X224626Y408431D01*
X207174Y408431D01*
X203253Y410055D01*
X200251Y413057D01*
X198627Y416978D01*
X198627Y421222D01*
X200266Y425178D01*
X200288Y425213D01*
X200348Y425296D01*
X200354Y425315D01*
X200365Y425332D01*
X200390Y425433D01*
X200421Y425531D01*
X200420Y425551D01*
X200425Y425571D01*
X200417Y425674D01*
X200414Y425777D01*
X200407Y425796D01*
X200406Y425816D01*
X200366Y425911D01*
X200330Y426008D01*
X200317Y426024D01*
X200310Y426042D01*
X200205Y426173D01*
X198584Y427794D01*
X198583Y427794D01*
X196761Y429616D01*
X195833Y431857D01*
X195833Y461155D01*
X195814Y461269D01*
X195797Y461386D01*
X195795Y461391D01*
X195794Y461398D01*
X195739Y461500D01*
X195686Y461605D01*
X195681Y461609D01*
X195678Y461615D01*
X195594Y461695D01*
X195510Y461777D01*
X195504Y461781D01*
X195500Y461784D01*
X195483Y461792D01*
X195363Y461858D01*
X194304Y462297D01*
X190517Y466084D01*
X188467Y471032D01*
X188467Y476388D01*
X190517Y481336D01*
X194304Y485123D01*
X199252Y487173D01*
X204608Y487173D01*
X209556Y485123D01*
X213343Y481336D01*
X213927Y479927D01*
X213965Y479866D01*
X213994Y479801D01*
X214029Y479762D01*
X214056Y479718D01*
X214112Y479672D01*
X214160Y479620D01*
X214206Y479595D01*
X214246Y479561D01*
X214313Y479536D01*
X214376Y479501D01*
X214427Y479492D01*
X214475Y479473D01*
X214547Y479470D01*
X214618Y479457D01*
X214669Y479465D01*
X214721Y479463D01*
X214790Y479483D01*
X214861Y479493D01*
X214907Y479517D01*
X214957Y479531D01*
X215016Y479572D01*
X215080Y479605D01*
X215117Y479642D01*
X215159Y479672D01*
X215202Y479729D01*
X215252Y479780D01*
X215287Y479843D01*
X215306Y479869D01*
X215313Y479891D01*
X215333Y479927D01*
X215917Y481336D01*
X219704Y485123D01*
X224652Y487173D01*
X230008Y487173D01*
X234956Y485123D01*
X238743Y481336D01*
X240146Y477950D01*
X240199Y477864D01*
X240247Y477775D01*
X240264Y477760D01*
X240275Y477741D01*
X240353Y477677D01*
X240427Y477608D01*
X240448Y477599D01*
X240465Y477584D01*
X240559Y477548D01*
X240652Y477506D01*
X240674Y477504D01*
X240694Y477496D01*
X240795Y477492D01*
X240896Y477482D01*
X240918Y477487D01*
X240940Y477486D01*
X241037Y477514D01*
X241136Y477537D01*
X241155Y477548D01*
X241176Y477554D01*
X241259Y477612D01*
X241346Y477665D01*
X241360Y477682D01*
X241378Y477695D01*
X241439Y477776D01*
X241504Y477854D01*
X241515Y477878D01*
X241525Y477892D01*
X241535Y477923D01*
X241573Y478006D01*
X241666Y478293D01*
X242519Y479967D01*
X243624Y481488D01*
X244952Y482816D01*
X246473Y483921D01*
X248147Y484774D01*
X249934Y485355D01*
X251207Y485556D01*
X251207Y474472D01*
X251210Y474452D01*
X251208Y474433D01*
X251230Y474331D01*
X251247Y474229D01*
X251256Y474212D01*
X251260Y474192D01*
X251313Y474103D01*
X251362Y474012D01*
X251376Y473998D01*
X251386Y473981D01*
X251465Y473914D01*
X251540Y473843D01*
X251558Y473834D01*
X251573Y473821D01*
X251669Y473783D01*
X251763Y473739D01*
X251783Y473737D01*
X251801Y473729D01*
X251968Y473711D01*
X253492Y473711D01*
X253512Y473714D01*
X253531Y473712D01*
X253633Y473734D01*
X253735Y473751D01*
X253752Y473760D01*
X253772Y473764D01*
X253861Y473817D01*
X253952Y473866D01*
X253966Y473880D01*
X253983Y473890D01*
X254050Y473969D01*
X254121Y474044D01*
X254130Y474062D01*
X254143Y474077D01*
X254182Y474173D01*
X254225Y474267D01*
X254227Y474287D01*
X254235Y474305D01*
X254253Y474472D01*
X254253Y485556D01*
X255526Y485355D01*
X257313Y484774D01*
X258987Y483921D01*
X260508Y482816D01*
X261836Y481488D01*
X262941Y479967D01*
X263794Y478293D01*
X263887Y478006D01*
X263934Y477916D01*
X263975Y477824D01*
X263990Y477808D01*
X264000Y477788D01*
X264073Y477717D01*
X264141Y477643D01*
X264161Y477632D01*
X264177Y477617D01*
X264268Y477573D01*
X264357Y477524D01*
X264379Y477520D01*
X264399Y477511D01*
X264499Y477498D01*
X264599Y477480D01*
X264621Y477484D01*
X264643Y477481D01*
X264742Y477501D01*
X264842Y477516D01*
X264862Y477526D01*
X264884Y477531D01*
X264971Y477582D01*
X265061Y477628D01*
X265077Y477644D01*
X265096Y477655D01*
X265163Y477731D01*
X265234Y477803D01*
X265247Y477827D01*
X265258Y477840D01*
X265270Y477870D01*
X265314Y477950D01*
X266717Y481336D01*
X270504Y485123D01*
X275452Y487173D01*
X280808Y487173D01*
X285756Y485123D01*
X289543Y481336D01*
X290127Y479927D01*
X290165Y479866D01*
X290194Y479801D01*
X290229Y479762D01*
X290256Y479718D01*
X290312Y479672D01*
X290360Y479620D01*
X290406Y479595D01*
X290446Y479561D01*
X290513Y479536D01*
X290576Y479501D01*
X290627Y479492D01*
X290675Y479473D01*
X290747Y479470D01*
X290818Y479457D01*
X290869Y479465D01*
X290921Y479463D01*
X290990Y479483D01*
X291061Y479493D01*
X291107Y479517D01*
X291157Y479531D01*
X291216Y479572D01*
X291280Y479605D01*
X291317Y479642D01*
X291359Y479672D01*
X291402Y479729D01*
X291452Y479780D01*
X291487Y479843D01*
X291506Y479869D01*
X291513Y479891D01*
X291533Y479927D01*
X292117Y481336D01*
X295904Y485123D01*
X300852Y487173D01*
X306208Y487173D01*
X311156Y485123D01*
X314943Y481336D01*
X316993Y476388D01*
X316993Y471032D01*
X314943Y466084D01*
X311156Y462297D01*
X306208Y460247D01*
X304085Y460247D01*
X303995Y460233D01*
X303904Y460225D01*
X303874Y460213D01*
X303842Y460208D01*
X303761Y460165D01*
X303677Y460129D01*
X303645Y460103D01*
X303625Y460092D01*
X303602Y460069D01*
X303546Y460024D01*
X273020Y429498D01*
X272967Y429424D01*
X272907Y429354D01*
X272895Y429324D01*
X272876Y429298D01*
X272849Y429211D01*
X272815Y429126D01*
X272811Y429085D01*
X272804Y429063D01*
X272805Y429031D01*
X272797Y428959D01*
X272797Y341687D01*
X271869Y339446D01*
X244754Y312331D01*
X242513Y311403D01*
X231810Y311403D01*
X231720Y311389D01*
X231629Y311381D01*
X231600Y311369D01*
X231568Y311364D01*
X231487Y311321D01*
X231403Y311285D01*
X231371Y311259D01*
X231350Y311248D01*
X231328Y311225D01*
X231272Y311180D01*
X228547Y308455D01*
X224626Y306831D01*
X207174Y306831D01*
G37*
%LPD*%
%LPC*%
G36*
X45429Y145823D02*
X45429Y145823D01*
X42545Y147018D01*
X40338Y149225D01*
X39143Y152109D01*
X39143Y155231D01*
X40338Y158115D01*
X40670Y158447D01*
X40723Y158521D01*
X40783Y158591D01*
X40795Y158621D01*
X40814Y158647D01*
X40841Y158734D01*
X40875Y158819D01*
X40879Y158860D01*
X40886Y158882D01*
X40885Y158914D01*
X40893Y158986D01*
X40893Y210584D01*
X40879Y210675D01*
X40871Y210765D01*
X40859Y210795D01*
X40854Y210827D01*
X40811Y210908D01*
X40775Y210992D01*
X40749Y211024D01*
X40738Y211045D01*
X40715Y211067D01*
X40670Y211123D01*
X40338Y211455D01*
X39938Y212421D01*
X39900Y212482D01*
X39871Y212548D01*
X39836Y212586D01*
X39808Y212630D01*
X39753Y212676D01*
X39704Y212729D01*
X39659Y212754D01*
X39619Y212787D01*
X39552Y212813D01*
X39489Y212848D01*
X39437Y212857D01*
X39389Y212875D01*
X39317Y212878D01*
X39247Y212891D01*
X39195Y212884D01*
X39143Y212886D01*
X39074Y212866D01*
X39003Y212855D01*
X38957Y212832D01*
X38907Y212817D01*
X38848Y212776D01*
X38784Y212744D01*
X38748Y212707D01*
X38705Y212677D01*
X38662Y212620D01*
X38612Y212568D01*
X38577Y212506D01*
X38558Y212480D01*
X38551Y212457D01*
X38531Y212421D01*
X36813Y208274D01*
X33026Y204487D01*
X31617Y203903D01*
X31556Y203865D01*
X31491Y203836D01*
X31452Y203801D01*
X31408Y203774D01*
X31362Y203718D01*
X31310Y203670D01*
X31285Y203624D01*
X31251Y203584D01*
X31226Y203517D01*
X31191Y203454D01*
X31182Y203403D01*
X31163Y203355D01*
X31160Y203283D01*
X31147Y203212D01*
X31155Y203161D01*
X31153Y203109D01*
X31173Y203040D01*
X31183Y202969D01*
X31207Y202923D01*
X31221Y202873D01*
X31262Y202814D01*
X31295Y202750D01*
X31332Y202713D01*
X31362Y202671D01*
X31419Y202628D01*
X31470Y202578D01*
X31533Y202543D01*
X31559Y202524D01*
X31581Y202517D01*
X31617Y202497D01*
X33026Y201913D01*
X36813Y198126D01*
X38863Y193178D01*
X38863Y187822D01*
X36813Y182874D01*
X33026Y179087D01*
X29640Y177684D01*
X29554Y177631D01*
X29465Y177583D01*
X29450Y177566D01*
X29431Y177555D01*
X29367Y177477D01*
X29298Y177403D01*
X29289Y177382D01*
X29274Y177365D01*
X29238Y177271D01*
X29196Y177178D01*
X29194Y177156D01*
X29186Y177136D01*
X29182Y177035D01*
X29172Y176934D01*
X29177Y176912D01*
X29176Y176890D01*
X29204Y176793D01*
X29227Y176694D01*
X29238Y176675D01*
X29244Y176654D01*
X29302Y176571D01*
X29355Y176484D01*
X29372Y176470D01*
X29385Y176452D01*
X29466Y176391D01*
X29544Y176326D01*
X29568Y176315D01*
X29582Y176305D01*
X29613Y176295D01*
X29696Y176257D01*
X29983Y176164D01*
X31657Y175311D01*
X33178Y174206D01*
X34506Y172878D01*
X35611Y171357D01*
X36464Y169683D01*
X37045Y167896D01*
X37246Y166623D01*
X26162Y166623D01*
X26142Y166620D01*
X26123Y166622D01*
X26021Y166600D01*
X25919Y166583D01*
X25902Y166574D01*
X25882Y166570D01*
X25793Y166517D01*
X25702Y166468D01*
X25688Y166454D01*
X25671Y166444D01*
X25604Y166365D01*
X25533Y166290D01*
X25524Y166272D01*
X25511Y166257D01*
X25473Y166161D01*
X25429Y166067D01*
X25427Y166047D01*
X25419Y166029D01*
X25401Y165862D01*
X25401Y165099D01*
X25399Y165099D01*
X25399Y165862D01*
X25396Y165882D01*
X25398Y165901D01*
X25376Y166003D01*
X25359Y166105D01*
X25350Y166122D01*
X25346Y166142D01*
X25293Y166231D01*
X25244Y166322D01*
X25230Y166336D01*
X25220Y166353D01*
X25141Y166420D01*
X25066Y166491D01*
X25048Y166500D01*
X25033Y166513D01*
X24937Y166552D01*
X24843Y166595D01*
X24823Y166597D01*
X24805Y166605D01*
X24638Y166623D01*
X13554Y166623D01*
X13755Y167896D01*
X14336Y169683D01*
X15189Y171357D01*
X16294Y172878D01*
X17622Y174206D01*
X19143Y175311D01*
X20817Y176164D01*
X21104Y176257D01*
X21194Y176304D01*
X21286Y176345D01*
X21302Y176360D01*
X21322Y176370D01*
X21393Y176443D01*
X21467Y176511D01*
X21478Y176531D01*
X21493Y176547D01*
X21537Y176638D01*
X21586Y176727D01*
X21590Y176749D01*
X21599Y176769D01*
X21612Y176869D01*
X21630Y176969D01*
X21626Y176991D01*
X21629Y177013D01*
X21609Y177112D01*
X21594Y177212D01*
X21584Y177232D01*
X21579Y177254D01*
X21528Y177341D01*
X21482Y177431D01*
X21466Y177447D01*
X21455Y177466D01*
X21379Y177533D01*
X21307Y177604D01*
X21283Y177617D01*
X21270Y177628D01*
X21240Y177640D01*
X21160Y177684D01*
X17774Y179087D01*
X13987Y182874D01*
X11937Y187822D01*
X11937Y193178D01*
X13987Y198126D01*
X17774Y201913D01*
X19183Y202497D01*
X19244Y202534D01*
X19309Y202564D01*
X19348Y202599D01*
X19392Y202626D01*
X19438Y202682D01*
X19490Y202730D01*
X19515Y202776D01*
X19549Y202816D01*
X19574Y202883D01*
X19609Y202946D01*
X19618Y202997D01*
X19637Y203045D01*
X19640Y203117D01*
X19653Y203188D01*
X19645Y203239D01*
X19647Y203291D01*
X19627Y203360D01*
X19617Y203431D01*
X19593Y203477D01*
X19579Y203527D01*
X19538Y203586D01*
X19505Y203650D01*
X19468Y203687D01*
X19438Y203729D01*
X19381Y203772D01*
X19330Y203822D01*
X19267Y203857D01*
X19241Y203876D01*
X19219Y203883D01*
X19183Y203903D01*
X17774Y204487D01*
X13987Y208274D01*
X11937Y213222D01*
X11937Y218578D01*
X13987Y223526D01*
X17774Y227313D01*
X19183Y227897D01*
X19244Y227934D01*
X19309Y227964D01*
X19348Y227999D01*
X19392Y228026D01*
X19438Y228082D01*
X19490Y228130D01*
X19515Y228176D01*
X19549Y228216D01*
X19574Y228283D01*
X19609Y228346D01*
X19618Y228397D01*
X19637Y228445D01*
X19640Y228517D01*
X19653Y228588D01*
X19645Y228639D01*
X19647Y228691D01*
X19627Y228760D01*
X19617Y228831D01*
X19593Y228877D01*
X19579Y228927D01*
X19538Y228986D01*
X19505Y229050D01*
X19468Y229087D01*
X19438Y229129D01*
X19381Y229172D01*
X19330Y229222D01*
X19267Y229257D01*
X19241Y229276D01*
X19219Y229283D01*
X19183Y229303D01*
X17774Y229887D01*
X13987Y233674D01*
X11937Y238622D01*
X11937Y243978D01*
X13987Y248926D01*
X17774Y252713D01*
X19183Y253297D01*
X19244Y253334D01*
X19309Y253364D01*
X19348Y253399D01*
X19392Y253426D01*
X19438Y253482D01*
X19490Y253530D01*
X19515Y253576D01*
X19549Y253616D01*
X19574Y253683D01*
X19609Y253746D01*
X19618Y253797D01*
X19637Y253845D01*
X19640Y253917D01*
X19653Y253988D01*
X19645Y254039D01*
X19647Y254091D01*
X19627Y254160D01*
X19617Y254231D01*
X19593Y254277D01*
X19579Y254327D01*
X19538Y254386D01*
X19505Y254450D01*
X19468Y254487D01*
X19438Y254529D01*
X19381Y254572D01*
X19330Y254622D01*
X19267Y254657D01*
X19241Y254676D01*
X19219Y254683D01*
X19183Y254703D01*
X17774Y255287D01*
X13987Y259074D01*
X11937Y264022D01*
X11937Y269378D01*
X13987Y274326D01*
X17774Y278113D01*
X19183Y278697D01*
X19244Y278734D01*
X19309Y278764D01*
X19348Y278799D01*
X19392Y278826D01*
X19438Y278882D01*
X19490Y278930D01*
X19515Y278976D01*
X19549Y279016D01*
X19574Y279083D01*
X19609Y279146D01*
X19618Y279197D01*
X19637Y279245D01*
X19640Y279317D01*
X19653Y279388D01*
X19645Y279439D01*
X19647Y279491D01*
X19627Y279560D01*
X19617Y279631D01*
X19593Y279677D01*
X19579Y279727D01*
X19538Y279786D01*
X19505Y279850D01*
X19468Y279887D01*
X19438Y279929D01*
X19381Y279972D01*
X19330Y280022D01*
X19267Y280057D01*
X19241Y280076D01*
X19219Y280083D01*
X19183Y280103D01*
X17774Y280687D01*
X13987Y284474D01*
X11937Y289422D01*
X11937Y294778D01*
X13987Y299726D01*
X17774Y303513D01*
X19183Y304097D01*
X19244Y304134D01*
X19309Y304164D01*
X19348Y304199D01*
X19392Y304226D01*
X19438Y304282D01*
X19490Y304330D01*
X19515Y304376D01*
X19549Y304416D01*
X19574Y304483D01*
X19609Y304546D01*
X19618Y304597D01*
X19637Y304645D01*
X19640Y304717D01*
X19653Y304788D01*
X19645Y304839D01*
X19647Y304891D01*
X19627Y304960D01*
X19617Y305031D01*
X19593Y305077D01*
X19579Y305127D01*
X19538Y305186D01*
X19505Y305250D01*
X19468Y305287D01*
X19438Y305329D01*
X19381Y305372D01*
X19330Y305422D01*
X19267Y305457D01*
X19241Y305476D01*
X19219Y305483D01*
X19183Y305503D01*
X17774Y306087D01*
X13987Y309874D01*
X11937Y314822D01*
X11937Y320178D01*
X13987Y325126D01*
X17774Y328913D01*
X19183Y329497D01*
X19244Y329534D01*
X19309Y329564D01*
X19348Y329599D01*
X19392Y329626D01*
X19438Y329682D01*
X19490Y329730D01*
X19515Y329776D01*
X19549Y329816D01*
X19574Y329883D01*
X19609Y329946D01*
X19618Y329997D01*
X19637Y330045D01*
X19640Y330117D01*
X19653Y330188D01*
X19645Y330239D01*
X19647Y330291D01*
X19627Y330360D01*
X19617Y330431D01*
X19593Y330477D01*
X19579Y330527D01*
X19538Y330586D01*
X19505Y330650D01*
X19468Y330687D01*
X19438Y330729D01*
X19381Y330772D01*
X19330Y330822D01*
X19267Y330857D01*
X19241Y330876D01*
X19219Y330883D01*
X19183Y330903D01*
X17774Y331487D01*
X13987Y335274D01*
X11937Y340222D01*
X11937Y345578D01*
X13987Y350526D01*
X17774Y354313D01*
X19183Y354897D01*
X19244Y354934D01*
X19309Y354964D01*
X19348Y354999D01*
X19392Y355026D01*
X19438Y355082D01*
X19490Y355130D01*
X19515Y355176D01*
X19549Y355216D01*
X19574Y355283D01*
X19609Y355346D01*
X19618Y355397D01*
X19637Y355445D01*
X19640Y355517D01*
X19653Y355588D01*
X19645Y355639D01*
X19647Y355691D01*
X19627Y355760D01*
X19617Y355831D01*
X19593Y355877D01*
X19579Y355927D01*
X19538Y355986D01*
X19505Y356050D01*
X19468Y356087D01*
X19438Y356129D01*
X19381Y356172D01*
X19330Y356222D01*
X19267Y356257D01*
X19241Y356276D01*
X19219Y356283D01*
X19183Y356303D01*
X17774Y356887D01*
X13987Y360674D01*
X11937Y365622D01*
X11937Y370978D01*
X13987Y375926D01*
X17774Y379713D01*
X22722Y381763D01*
X28078Y381763D01*
X33026Y379713D01*
X36813Y375926D01*
X38863Y370978D01*
X38863Y365622D01*
X36813Y360674D01*
X33026Y356887D01*
X31617Y356303D01*
X31556Y356265D01*
X31491Y356236D01*
X31452Y356201D01*
X31408Y356174D01*
X31362Y356118D01*
X31310Y356070D01*
X31285Y356024D01*
X31251Y355984D01*
X31226Y355917D01*
X31191Y355854D01*
X31182Y355803D01*
X31163Y355755D01*
X31160Y355683D01*
X31147Y355612D01*
X31155Y355561D01*
X31153Y355509D01*
X31173Y355440D01*
X31183Y355369D01*
X31207Y355323D01*
X31221Y355273D01*
X31262Y355214D01*
X31295Y355150D01*
X31332Y355113D01*
X31362Y355071D01*
X31419Y355028D01*
X31470Y354978D01*
X31533Y354943D01*
X31559Y354924D01*
X31581Y354917D01*
X31617Y354897D01*
X33026Y354313D01*
X36813Y350526D01*
X38863Y345578D01*
X38863Y340222D01*
X36813Y335274D01*
X33026Y331487D01*
X31617Y330903D01*
X31556Y330865D01*
X31491Y330836D01*
X31452Y330801D01*
X31408Y330774D01*
X31362Y330718D01*
X31310Y330670D01*
X31285Y330624D01*
X31251Y330584D01*
X31226Y330517D01*
X31191Y330454D01*
X31182Y330403D01*
X31163Y330355D01*
X31160Y330283D01*
X31147Y330212D01*
X31155Y330161D01*
X31153Y330109D01*
X31173Y330040D01*
X31183Y329969D01*
X31207Y329923D01*
X31221Y329873D01*
X31262Y329814D01*
X31295Y329750D01*
X31332Y329713D01*
X31362Y329671D01*
X31419Y329628D01*
X31470Y329578D01*
X31533Y329543D01*
X31559Y329524D01*
X31581Y329517D01*
X31617Y329497D01*
X33026Y328913D01*
X36813Y325126D01*
X38863Y320178D01*
X38863Y314822D01*
X36813Y309874D01*
X33026Y306087D01*
X31617Y305503D01*
X31556Y305465D01*
X31491Y305436D01*
X31452Y305401D01*
X31408Y305374D01*
X31362Y305318D01*
X31310Y305270D01*
X31285Y305224D01*
X31251Y305184D01*
X31226Y305117D01*
X31191Y305054D01*
X31182Y305003D01*
X31163Y304955D01*
X31160Y304883D01*
X31147Y304812D01*
X31155Y304761D01*
X31153Y304709D01*
X31173Y304640D01*
X31183Y304569D01*
X31207Y304523D01*
X31221Y304473D01*
X31262Y304414D01*
X31295Y304350D01*
X31332Y304313D01*
X31362Y304271D01*
X31419Y304228D01*
X31470Y304178D01*
X31533Y304143D01*
X31559Y304124D01*
X31581Y304117D01*
X31617Y304097D01*
X33026Y303513D01*
X36813Y299726D01*
X38863Y294778D01*
X38863Y289422D01*
X36813Y284474D01*
X33026Y280687D01*
X31617Y280103D01*
X31556Y280065D01*
X31491Y280036D01*
X31452Y280001D01*
X31408Y279974D01*
X31362Y279918D01*
X31310Y279870D01*
X31285Y279824D01*
X31251Y279784D01*
X31226Y279717D01*
X31191Y279654D01*
X31182Y279603D01*
X31163Y279555D01*
X31160Y279483D01*
X31147Y279412D01*
X31155Y279361D01*
X31153Y279309D01*
X31173Y279240D01*
X31183Y279169D01*
X31207Y279123D01*
X31221Y279073D01*
X31262Y279014D01*
X31295Y278950D01*
X31332Y278913D01*
X31362Y278871D01*
X31419Y278828D01*
X31470Y278778D01*
X31533Y278743D01*
X31559Y278724D01*
X31581Y278717D01*
X31617Y278697D01*
X33026Y278113D01*
X36813Y274326D01*
X38863Y269378D01*
X38863Y264022D01*
X36813Y259074D01*
X33026Y255287D01*
X31617Y254703D01*
X31556Y254665D01*
X31491Y254636D01*
X31452Y254601D01*
X31408Y254574D01*
X31362Y254518D01*
X31310Y254470D01*
X31285Y254424D01*
X31251Y254384D01*
X31226Y254317D01*
X31191Y254254D01*
X31182Y254203D01*
X31163Y254155D01*
X31160Y254083D01*
X31147Y254012D01*
X31155Y253961D01*
X31153Y253909D01*
X31173Y253840D01*
X31183Y253769D01*
X31207Y253723D01*
X31221Y253673D01*
X31262Y253614D01*
X31295Y253550D01*
X31332Y253513D01*
X31362Y253471D01*
X31419Y253428D01*
X31470Y253378D01*
X31533Y253343D01*
X31559Y253324D01*
X31581Y253317D01*
X31617Y253297D01*
X33026Y252713D01*
X36813Y248926D01*
X38863Y243978D01*
X38863Y238622D01*
X36813Y233674D01*
X33026Y229887D01*
X31617Y229303D01*
X31556Y229265D01*
X31491Y229236D01*
X31452Y229201D01*
X31408Y229174D01*
X31362Y229118D01*
X31310Y229070D01*
X31285Y229024D01*
X31251Y228984D01*
X31226Y228917D01*
X31191Y228854D01*
X31182Y228803D01*
X31163Y228755D01*
X31160Y228683D01*
X31147Y228612D01*
X31155Y228561D01*
X31153Y228509D01*
X31173Y228440D01*
X31183Y228369D01*
X31207Y228323D01*
X31221Y228273D01*
X31262Y228214D01*
X31295Y228150D01*
X31332Y228113D01*
X31362Y228071D01*
X31419Y228028D01*
X31470Y227978D01*
X31533Y227943D01*
X31559Y227924D01*
X31581Y227917D01*
X31617Y227897D01*
X33026Y227313D01*
X36813Y223526D01*
X38531Y219379D01*
X38569Y219318D01*
X38598Y219252D01*
X38633Y219214D01*
X38661Y219170D01*
X38716Y219124D01*
X38764Y219071D01*
X38810Y219046D01*
X38850Y219013D01*
X38917Y218987D01*
X38980Y218952D01*
X39031Y218943D01*
X39080Y218925D01*
X39151Y218922D01*
X39222Y218909D01*
X39273Y218916D01*
X39326Y218914D01*
X39394Y218934D01*
X39465Y218945D01*
X39512Y218968D01*
X39562Y218983D01*
X39621Y219024D01*
X39685Y219056D01*
X39721Y219093D01*
X39764Y219123D01*
X39807Y219180D01*
X39857Y219232D01*
X39891Y219294D01*
X39911Y219320D01*
X39918Y219343D01*
X39938Y219379D01*
X40338Y220345D01*
X42545Y222552D01*
X45429Y223747D01*
X48551Y223747D01*
X51435Y222552D01*
X53642Y220345D01*
X54837Y217461D01*
X54837Y214339D01*
X53642Y211455D01*
X53310Y211123D01*
X53257Y211049D01*
X53197Y210979D01*
X53185Y210949D01*
X53166Y210923D01*
X53139Y210836D01*
X53105Y210751D01*
X53101Y210710D01*
X53094Y210688D01*
X53095Y210656D01*
X53087Y210584D01*
X53087Y158986D01*
X53101Y158895D01*
X53109Y158805D01*
X53121Y158775D01*
X53126Y158743D01*
X53169Y158662D01*
X53205Y158578D01*
X53231Y158546D01*
X53242Y158525D01*
X53265Y158503D01*
X53310Y158447D01*
X53642Y158115D01*
X54837Y155231D01*
X54837Y152109D01*
X53642Y149225D01*
X51435Y147018D01*
X48551Y145823D01*
X45429Y145823D01*
G37*
%LPD*%
%LPC*%
G36*
X469899Y139699D02*
X469899Y139699D01*
X469899Y140462D01*
X469896Y140482D01*
X469898Y140501D01*
X469876Y140603D01*
X469859Y140705D01*
X469850Y140722D01*
X469846Y140742D01*
X469793Y140831D01*
X469744Y140922D01*
X469730Y140936D01*
X469720Y140953D01*
X469641Y141020D01*
X469566Y141091D01*
X469548Y141100D01*
X469533Y141113D01*
X469437Y141152D01*
X469343Y141195D01*
X469323Y141197D01*
X469305Y141205D01*
X469138Y141223D01*
X458054Y141223D01*
X458255Y142496D01*
X458836Y144283D01*
X459689Y145957D01*
X460794Y147478D01*
X462122Y148806D01*
X463643Y149911D01*
X465317Y150764D01*
X465604Y150857D01*
X465694Y150904D01*
X465786Y150945D01*
X465802Y150960D01*
X465822Y150970D01*
X465893Y151043D01*
X465967Y151111D01*
X465978Y151131D01*
X465993Y151147D01*
X466037Y151238D01*
X466086Y151327D01*
X466090Y151349D01*
X466099Y151369D01*
X466112Y151469D01*
X466130Y151569D01*
X466126Y151591D01*
X466129Y151613D01*
X466109Y151712D01*
X466094Y151812D01*
X466084Y151832D01*
X466079Y151854D01*
X466028Y151941D01*
X465982Y152031D01*
X465966Y152047D01*
X465955Y152066D01*
X465879Y152133D01*
X465807Y152204D01*
X465783Y152217D01*
X465770Y152228D01*
X465740Y152240D01*
X465660Y152284D01*
X462274Y153687D01*
X458487Y157474D01*
X456437Y162422D01*
X456437Y167778D01*
X458487Y172726D01*
X462274Y176513D01*
X463683Y177097D01*
X463744Y177134D01*
X463809Y177164D01*
X463848Y177199D01*
X463892Y177226D01*
X463938Y177282D01*
X463990Y177330D01*
X464015Y177376D01*
X464049Y177416D01*
X464074Y177483D01*
X464109Y177546D01*
X464118Y177597D01*
X464137Y177645D01*
X464140Y177717D01*
X464153Y177788D01*
X464145Y177839D01*
X464147Y177891D01*
X464127Y177960D01*
X464117Y178031D01*
X464093Y178077D01*
X464079Y178127D01*
X464038Y178186D01*
X464005Y178250D01*
X463968Y178287D01*
X463938Y178329D01*
X463881Y178372D01*
X463830Y178422D01*
X463767Y178457D01*
X463741Y178476D01*
X463719Y178483D01*
X463683Y178503D01*
X462274Y179087D01*
X458487Y182874D01*
X456437Y187822D01*
X456437Y193178D01*
X458487Y198126D01*
X462274Y201913D01*
X463683Y202497D01*
X463744Y202534D01*
X463809Y202564D01*
X463848Y202599D01*
X463892Y202626D01*
X463938Y202682D01*
X463990Y202730D01*
X464015Y202776D01*
X464049Y202816D01*
X464074Y202883D01*
X464109Y202946D01*
X464118Y202997D01*
X464137Y203045D01*
X464140Y203117D01*
X464153Y203188D01*
X464145Y203239D01*
X464147Y203291D01*
X464127Y203360D01*
X464117Y203431D01*
X464093Y203477D01*
X464079Y203527D01*
X464038Y203586D01*
X464005Y203650D01*
X463968Y203687D01*
X463938Y203729D01*
X463881Y203772D01*
X463830Y203822D01*
X463767Y203857D01*
X463741Y203876D01*
X463719Y203883D01*
X463683Y203903D01*
X462274Y204487D01*
X458487Y208274D01*
X456437Y213222D01*
X456437Y218578D01*
X458487Y223526D01*
X462274Y227313D01*
X463683Y227897D01*
X463744Y227934D01*
X463809Y227964D01*
X463848Y227999D01*
X463892Y228026D01*
X463938Y228082D01*
X463990Y228130D01*
X464015Y228176D01*
X464049Y228216D01*
X464074Y228283D01*
X464109Y228346D01*
X464118Y228397D01*
X464137Y228445D01*
X464140Y228517D01*
X464153Y228588D01*
X464145Y228639D01*
X464147Y228691D01*
X464127Y228760D01*
X464117Y228831D01*
X464093Y228877D01*
X464079Y228927D01*
X464038Y228986D01*
X464005Y229050D01*
X463968Y229087D01*
X463938Y229129D01*
X463881Y229172D01*
X463830Y229222D01*
X463767Y229257D01*
X463741Y229276D01*
X463719Y229283D01*
X463683Y229303D01*
X462274Y229887D01*
X458487Y233674D01*
X456437Y238622D01*
X456437Y243978D01*
X458487Y248926D01*
X462274Y252713D01*
X463683Y253297D01*
X463744Y253334D01*
X463809Y253364D01*
X463848Y253399D01*
X463892Y253426D01*
X463938Y253482D01*
X463990Y253530D01*
X464015Y253576D01*
X464049Y253616D01*
X464074Y253683D01*
X464109Y253746D01*
X464118Y253797D01*
X464137Y253845D01*
X464140Y253917D01*
X464153Y253988D01*
X464145Y254039D01*
X464147Y254091D01*
X464127Y254160D01*
X464117Y254231D01*
X464093Y254277D01*
X464079Y254327D01*
X464038Y254386D01*
X464005Y254450D01*
X463968Y254487D01*
X463938Y254529D01*
X463881Y254572D01*
X463830Y254622D01*
X463767Y254657D01*
X463741Y254676D01*
X463719Y254683D01*
X463683Y254703D01*
X462274Y255287D01*
X458487Y259074D01*
X456437Y264022D01*
X456437Y269378D01*
X458487Y274326D01*
X462274Y278113D01*
X463683Y278697D01*
X463744Y278734D01*
X463809Y278764D01*
X463848Y278799D01*
X463892Y278826D01*
X463938Y278882D01*
X463990Y278930D01*
X464015Y278976D01*
X464049Y279016D01*
X464074Y279083D01*
X464109Y279146D01*
X464118Y279197D01*
X464137Y279245D01*
X464140Y279317D01*
X464153Y279388D01*
X464145Y279439D01*
X464147Y279491D01*
X464127Y279560D01*
X464117Y279631D01*
X464093Y279677D01*
X464079Y279727D01*
X464038Y279786D01*
X464005Y279850D01*
X463968Y279887D01*
X463938Y279929D01*
X463881Y279972D01*
X463830Y280022D01*
X463767Y280057D01*
X463741Y280076D01*
X463719Y280083D01*
X463683Y280103D01*
X462274Y280687D01*
X458487Y284474D01*
X456437Y289422D01*
X456437Y294778D01*
X458487Y299726D01*
X462274Y303513D01*
X463683Y304097D01*
X463744Y304134D01*
X463809Y304164D01*
X463848Y304199D01*
X463892Y304226D01*
X463938Y304282D01*
X463990Y304330D01*
X464015Y304376D01*
X464049Y304416D01*
X464074Y304483D01*
X464109Y304546D01*
X464118Y304597D01*
X464137Y304645D01*
X464140Y304717D01*
X464153Y304788D01*
X464145Y304839D01*
X464147Y304891D01*
X464127Y304960D01*
X464117Y305031D01*
X464093Y305077D01*
X464079Y305127D01*
X464038Y305186D01*
X464005Y305250D01*
X463968Y305287D01*
X463938Y305329D01*
X463881Y305372D01*
X463830Y305422D01*
X463767Y305457D01*
X463741Y305476D01*
X463719Y305483D01*
X463683Y305503D01*
X462274Y306087D01*
X458487Y309874D01*
X456437Y314822D01*
X456437Y320178D01*
X458487Y325126D01*
X462274Y328913D01*
X463683Y329497D01*
X463744Y329534D01*
X463809Y329564D01*
X463848Y329599D01*
X463892Y329626D01*
X463938Y329682D01*
X463990Y329730D01*
X464015Y329776D01*
X464049Y329816D01*
X464074Y329883D01*
X464109Y329946D01*
X464118Y329997D01*
X464137Y330045D01*
X464140Y330117D01*
X464153Y330188D01*
X464145Y330239D01*
X464147Y330291D01*
X464127Y330360D01*
X464117Y330431D01*
X464093Y330477D01*
X464079Y330527D01*
X464038Y330586D01*
X464005Y330650D01*
X463968Y330687D01*
X463938Y330729D01*
X463881Y330772D01*
X463830Y330822D01*
X463767Y330857D01*
X463741Y330876D01*
X463719Y330883D01*
X463683Y330903D01*
X462274Y331487D01*
X458487Y335274D01*
X456437Y340222D01*
X456437Y345578D01*
X458487Y350526D01*
X462274Y354313D01*
X463683Y354897D01*
X463744Y354934D01*
X463809Y354964D01*
X463848Y354999D01*
X463892Y355026D01*
X463938Y355082D01*
X463990Y355130D01*
X464015Y355176D01*
X464049Y355216D01*
X464074Y355283D01*
X464109Y355346D01*
X464118Y355397D01*
X464137Y355445D01*
X464140Y355517D01*
X464153Y355588D01*
X464145Y355639D01*
X464147Y355691D01*
X464127Y355760D01*
X464117Y355831D01*
X464093Y355877D01*
X464079Y355927D01*
X464038Y355986D01*
X464005Y356050D01*
X463968Y356087D01*
X463938Y356129D01*
X463881Y356172D01*
X463830Y356222D01*
X463767Y356257D01*
X463741Y356276D01*
X463719Y356283D01*
X463683Y356303D01*
X462274Y356887D01*
X458487Y360674D01*
X456437Y365622D01*
X456437Y370978D01*
X458487Y375926D01*
X462274Y379713D01*
X467222Y381763D01*
X472578Y381763D01*
X477526Y379713D01*
X481313Y375926D01*
X483363Y370978D01*
X483363Y365622D01*
X481313Y360674D01*
X477526Y356887D01*
X476117Y356303D01*
X476056Y356265D01*
X475991Y356236D01*
X475952Y356201D01*
X475908Y356174D01*
X475862Y356118D01*
X475810Y356070D01*
X475785Y356024D01*
X475751Y355984D01*
X475726Y355917D01*
X475691Y355854D01*
X475682Y355803D01*
X475663Y355755D01*
X475660Y355683D01*
X475647Y355612D01*
X475655Y355561D01*
X475653Y355509D01*
X475673Y355440D01*
X475683Y355369D01*
X475707Y355323D01*
X475721Y355273D01*
X475762Y355214D01*
X475795Y355150D01*
X475832Y355113D01*
X475862Y355071D01*
X475919Y355028D01*
X475970Y354978D01*
X476033Y354943D01*
X476059Y354924D01*
X476081Y354917D01*
X476117Y354897D01*
X477526Y354313D01*
X481313Y350526D01*
X483363Y345578D01*
X483363Y340222D01*
X481313Y335274D01*
X477526Y331487D01*
X476117Y330903D01*
X476056Y330865D01*
X475991Y330836D01*
X475952Y330801D01*
X475908Y330774D01*
X475862Y330718D01*
X475810Y330670D01*
X475785Y330624D01*
X475751Y330584D01*
X475726Y330517D01*
X475691Y330454D01*
X475682Y330403D01*
X475663Y330355D01*
X475660Y330283D01*
X475647Y330212D01*
X475655Y330161D01*
X475653Y330109D01*
X475673Y330040D01*
X475683Y329969D01*
X475707Y329923D01*
X475721Y329873D01*
X475762Y329814D01*
X475795Y329750D01*
X475832Y329713D01*
X475862Y329671D01*
X475919Y329628D01*
X475970Y329578D01*
X476033Y329543D01*
X476059Y329524D01*
X476081Y329517D01*
X476117Y329497D01*
X477526Y328913D01*
X481313Y325126D01*
X483363Y320178D01*
X483363Y314822D01*
X481313Y309874D01*
X477526Y306087D01*
X476117Y305503D01*
X476056Y305465D01*
X475991Y305436D01*
X475952Y305401D01*
X475908Y305374D01*
X475862Y305318D01*
X475810Y305270D01*
X475785Y305224D01*
X475751Y305184D01*
X475726Y305117D01*
X475691Y305054D01*
X475682Y305003D01*
X475663Y304955D01*
X475660Y304883D01*
X475647Y304812D01*
X475655Y304761D01*
X475653Y304709D01*
X475673Y304640D01*
X475683Y304569D01*
X475707Y304523D01*
X475721Y304473D01*
X475762Y304414D01*
X475795Y304350D01*
X475832Y304313D01*
X475862Y304271D01*
X475919Y304228D01*
X475970Y304178D01*
X476033Y304143D01*
X476059Y304124D01*
X476081Y304117D01*
X476117Y304097D01*
X477526Y303513D01*
X481313Y299726D01*
X483363Y294778D01*
X483363Y289422D01*
X481313Y284474D01*
X477526Y280687D01*
X476117Y280103D01*
X476056Y280065D01*
X475991Y280036D01*
X475952Y280001D01*
X475908Y279974D01*
X475862Y279918D01*
X475810Y279870D01*
X475785Y279824D01*
X475751Y279784D01*
X475726Y279717D01*
X475691Y279654D01*
X475682Y279603D01*
X475663Y279555D01*
X475660Y279483D01*
X475647Y279412D01*
X475655Y279361D01*
X475653Y279309D01*
X475673Y279240D01*
X475683Y279169D01*
X475707Y279123D01*
X475721Y279073D01*
X475762Y279014D01*
X475795Y278950D01*
X475832Y278913D01*
X475862Y278871D01*
X475919Y278828D01*
X475970Y278778D01*
X476033Y278743D01*
X476059Y278724D01*
X476081Y278717D01*
X476117Y278697D01*
X477526Y278113D01*
X481313Y274326D01*
X483363Y269378D01*
X483363Y264022D01*
X481313Y259074D01*
X477526Y255287D01*
X476117Y254703D01*
X476056Y254665D01*
X475991Y254636D01*
X475952Y254601D01*
X475908Y254574D01*
X475862Y254518D01*
X475810Y254470D01*
X475785Y254424D01*
X475751Y254384D01*
X475726Y254317D01*
X475691Y254254D01*
X475682Y254203D01*
X475663Y254155D01*
X475660Y254083D01*
X475647Y254012D01*
X475655Y253961D01*
X475653Y253909D01*
X475673Y253840D01*
X475683Y253769D01*
X475707Y253723D01*
X475721Y253673D01*
X475762Y253614D01*
X475795Y253550D01*
X475832Y253513D01*
X475862Y253471D01*
X475919Y253428D01*
X475970Y253378D01*
X476033Y253343D01*
X476059Y253324D01*
X476081Y253317D01*
X476117Y253297D01*
X477526Y252713D01*
X481313Y248926D01*
X483363Y243978D01*
X483363Y238622D01*
X481313Y233674D01*
X477526Y229887D01*
X476117Y229303D01*
X476056Y229265D01*
X475991Y229236D01*
X475952Y229201D01*
X475908Y229174D01*
X475862Y229118D01*
X475810Y229070D01*
X475785Y229024D01*
X475751Y228984D01*
X475726Y228917D01*
X475691Y228854D01*
X475682Y228803D01*
X475663Y228755D01*
X475660Y228683D01*
X475647Y228612D01*
X475655Y228561D01*
X475653Y228509D01*
X475673Y228440D01*
X475683Y228369D01*
X475707Y228323D01*
X475721Y228273D01*
X475762Y228214D01*
X475795Y228150D01*
X475832Y228113D01*
X475862Y228071D01*
X475919Y228028D01*
X475970Y227978D01*
X476033Y227943D01*
X476059Y227924D01*
X476081Y227917D01*
X476117Y227897D01*
X477526Y227313D01*
X481313Y223526D01*
X483363Y218578D01*
X483363Y213222D01*
X481313Y208274D01*
X477526Y204487D01*
X476117Y203903D01*
X476056Y203865D01*
X475991Y203836D01*
X475952Y203801D01*
X475908Y203774D01*
X475862Y203718D01*
X475810Y203670D01*
X475785Y203624D01*
X475751Y203584D01*
X475726Y203517D01*
X475691Y203454D01*
X475682Y203403D01*
X475663Y203355D01*
X475660Y203283D01*
X475647Y203212D01*
X475655Y203161D01*
X475653Y203109D01*
X475673Y203040D01*
X475683Y202969D01*
X475707Y202923D01*
X475721Y202873D01*
X475762Y202814D01*
X475795Y202750D01*
X475832Y202713D01*
X475862Y202671D01*
X475919Y202628D01*
X475970Y202578D01*
X476033Y202543D01*
X476059Y202524D01*
X476081Y202517D01*
X476117Y202497D01*
X477526Y201913D01*
X481313Y198126D01*
X483363Y193178D01*
X483363Y187822D01*
X481313Y182874D01*
X477526Y179087D01*
X476117Y178503D01*
X476056Y178465D01*
X475991Y178436D01*
X475952Y178401D01*
X475908Y178374D01*
X475862Y178318D01*
X475810Y178270D01*
X475785Y178224D01*
X475751Y178184D01*
X475726Y178117D01*
X475691Y178054D01*
X475682Y178003D01*
X475663Y177955D01*
X475660Y177883D01*
X475647Y177812D01*
X475655Y177761D01*
X475653Y177709D01*
X475673Y177640D01*
X475683Y177569D01*
X475707Y177523D01*
X475721Y177473D01*
X475762Y177414D01*
X475795Y177350D01*
X475832Y177313D01*
X475862Y177271D01*
X475919Y177228D01*
X475970Y177178D01*
X476033Y177143D01*
X476059Y177124D01*
X476081Y177117D01*
X476117Y177097D01*
X477526Y176513D01*
X481313Y172726D01*
X483363Y167778D01*
X483363Y162422D01*
X481313Y157474D01*
X477526Y153687D01*
X474140Y152284D01*
X474054Y152231D01*
X473965Y152183D01*
X473950Y152166D01*
X473931Y152155D01*
X473867Y152077D01*
X473798Y152003D01*
X473789Y151982D01*
X473774Y151965D01*
X473738Y151871D01*
X473696Y151778D01*
X473694Y151756D01*
X473686Y151736D01*
X473682Y151635D01*
X473672Y151534D01*
X473677Y151512D01*
X473676Y151490D01*
X473704Y151393D01*
X473727Y151294D01*
X473738Y151275D01*
X473744Y151254D01*
X473802Y151171D01*
X473855Y151084D01*
X473872Y151070D01*
X473885Y151052D01*
X473966Y150991D01*
X474044Y150926D01*
X474068Y150915D01*
X474082Y150905D01*
X474113Y150895D01*
X474196Y150857D01*
X474483Y150764D01*
X476157Y149911D01*
X477678Y148806D01*
X479006Y147478D01*
X480111Y145957D01*
X480964Y144283D01*
X481545Y142496D01*
X481746Y141223D01*
X470662Y141223D01*
X470642Y141220D01*
X470623Y141222D01*
X470521Y141200D01*
X470419Y141183D01*
X470402Y141174D01*
X470382Y141170D01*
X470293Y141117D01*
X470202Y141068D01*
X470188Y141054D01*
X470171Y141044D01*
X470104Y140965D01*
X470033Y140890D01*
X470024Y140872D01*
X470011Y140857D01*
X469973Y140761D01*
X469929Y140667D01*
X469927Y140647D01*
X469919Y140629D01*
X469901Y140462D01*
X469901Y139699D01*
X469899Y139699D01*
G37*
%LPD*%
%LPC*%
G36*
X163539Y131853D02*
X163539Y131853D01*
X160655Y133048D01*
X158448Y135255D01*
X157253Y138139D01*
X157253Y141261D01*
X158448Y144145D01*
X158780Y144477D01*
X158834Y144551D01*
X158893Y144621D01*
X158905Y144651D01*
X158924Y144677D01*
X158951Y144764D01*
X158985Y144849D01*
X158989Y144890D01*
X158996Y144912D01*
X158995Y144944D01*
X159003Y145016D01*
X159003Y451884D01*
X158989Y451975D01*
X158981Y452065D01*
X158969Y452095D01*
X158964Y452127D01*
X158921Y452208D01*
X158885Y452292D01*
X158859Y452324D01*
X158848Y452345D01*
X158825Y452367D01*
X158780Y452423D01*
X158448Y452755D01*
X157253Y455639D01*
X157253Y458761D01*
X158448Y461645D01*
X160655Y463852D01*
X163539Y465047D01*
X166661Y465047D01*
X169545Y463852D01*
X171752Y461645D01*
X172947Y458761D01*
X172947Y455639D01*
X171752Y452755D01*
X171420Y452423D01*
X171367Y452349D01*
X171307Y452279D01*
X171295Y452249D01*
X171276Y452223D01*
X171249Y452136D01*
X171215Y452051D01*
X171211Y452010D01*
X171204Y451988D01*
X171205Y451956D01*
X171197Y451884D01*
X171197Y145016D01*
X171211Y144925D01*
X171219Y144834D01*
X171231Y144805D01*
X171236Y144773D01*
X171279Y144692D01*
X171315Y144608D01*
X171341Y144576D01*
X171352Y144555D01*
X171375Y144533D01*
X171420Y144477D01*
X171752Y144145D01*
X172947Y141261D01*
X172947Y138139D01*
X171752Y135255D01*
X169545Y133048D01*
X166661Y131853D01*
X163539Y131853D01*
G37*
%LPD*%
%LPC*%
G36*
X180049Y157253D02*
X180049Y157253D01*
X177165Y158448D01*
X174958Y160655D01*
X173763Y163539D01*
X173763Y166661D01*
X174958Y169545D01*
X175290Y169877D01*
X175343Y169951D01*
X175403Y170021D01*
X175415Y170051D01*
X175434Y170077D01*
X175461Y170164D01*
X175495Y170249D01*
X175499Y170290D01*
X175506Y170312D01*
X175505Y170344D01*
X175513Y170416D01*
X175513Y402354D01*
X175499Y402445D01*
X175491Y402535D01*
X175479Y402565D01*
X175474Y402597D01*
X175431Y402678D01*
X175395Y402762D01*
X175369Y402794D01*
X175358Y402815D01*
X175335Y402837D01*
X175290Y402893D01*
X174958Y403225D01*
X173763Y406109D01*
X173763Y409231D01*
X174958Y412115D01*
X177165Y414322D01*
X180049Y415517D01*
X183171Y415517D01*
X186055Y414322D01*
X188262Y412115D01*
X189457Y409231D01*
X189457Y406109D01*
X188262Y403225D01*
X187930Y402893D01*
X187877Y402819D01*
X187817Y402749D01*
X187805Y402719D01*
X187786Y402693D01*
X187759Y402606D01*
X187725Y402521D01*
X187721Y402480D01*
X187714Y402458D01*
X187715Y402426D01*
X187707Y402354D01*
X187707Y170416D01*
X187721Y170325D01*
X187729Y170235D01*
X187741Y170205D01*
X187746Y170173D01*
X187789Y170092D01*
X187825Y170008D01*
X187851Y169976D01*
X187862Y169955D01*
X187885Y169933D01*
X187930Y169877D01*
X188262Y169545D01*
X189457Y166661D01*
X189457Y163539D01*
X188262Y160655D01*
X186055Y158448D01*
X183171Y157253D01*
X180049Y157253D01*
G37*
%LPD*%
%LPC*%
G36*
X417539Y157253D02*
X417539Y157253D01*
X414655Y158448D01*
X412448Y160655D01*
X411253Y163539D01*
X411253Y166661D01*
X412448Y169545D01*
X412780Y169877D01*
X412833Y169951D01*
X412893Y170021D01*
X412905Y170051D01*
X412924Y170077D01*
X412951Y170164D01*
X412985Y170249D01*
X412989Y170290D01*
X412996Y170312D01*
X412995Y170344D01*
X413003Y170416D01*
X413003Y362984D01*
X412989Y363075D01*
X412981Y363165D01*
X412969Y363195D01*
X412964Y363227D01*
X412921Y363308D01*
X412885Y363392D01*
X412859Y363424D01*
X412848Y363445D01*
X412825Y363467D01*
X412780Y363523D01*
X412448Y363855D01*
X411253Y366739D01*
X411253Y369861D01*
X412448Y372745D01*
X414655Y374952D01*
X417539Y376147D01*
X420661Y376147D01*
X423545Y374952D01*
X425752Y372745D01*
X426947Y369861D01*
X426947Y366739D01*
X425752Y363855D01*
X425420Y363523D01*
X425367Y363449D01*
X425307Y363379D01*
X425295Y363349D01*
X425276Y363323D01*
X425249Y363236D01*
X425215Y363151D01*
X425211Y363110D01*
X425204Y363088D01*
X425205Y363056D01*
X425197Y362984D01*
X425197Y170416D01*
X425211Y170325D01*
X425219Y170235D01*
X425231Y170205D01*
X425236Y170173D01*
X425279Y170092D01*
X425315Y170008D01*
X425341Y169976D01*
X425352Y169955D01*
X425375Y169933D01*
X425420Y169877D01*
X425752Y169545D01*
X426947Y166661D01*
X426947Y163539D01*
X425752Y160655D01*
X423545Y158448D01*
X420661Y157253D01*
X417539Y157253D01*
G37*
%LPD*%
%LPC*%
G36*
X443229Y24129D02*
X443229Y24129D01*
X443229Y24892D01*
X443226Y24912D01*
X443228Y24931D01*
X443206Y25033D01*
X443189Y25135D01*
X443180Y25152D01*
X443176Y25172D01*
X443123Y25261D01*
X443074Y25352D01*
X443060Y25366D01*
X443050Y25383D01*
X442971Y25450D01*
X442896Y25521D01*
X442878Y25530D01*
X442863Y25543D01*
X442767Y25582D01*
X442673Y25625D01*
X442653Y25627D01*
X442635Y25635D01*
X442468Y25653D01*
X431384Y25653D01*
X431585Y26926D01*
X432166Y28713D01*
X433019Y30387D01*
X434124Y31908D01*
X435452Y33236D01*
X436973Y34341D01*
X438647Y35194D01*
X438934Y35287D01*
X439024Y35334D01*
X439116Y35375D01*
X439132Y35390D01*
X439152Y35400D01*
X439223Y35473D01*
X439297Y35541D01*
X439308Y35561D01*
X439323Y35577D01*
X439367Y35668D01*
X439416Y35757D01*
X439420Y35779D01*
X439429Y35799D01*
X439442Y35899D01*
X439460Y35999D01*
X439456Y36021D01*
X439459Y36043D01*
X439439Y36142D01*
X439424Y36242D01*
X439414Y36262D01*
X439409Y36284D01*
X439358Y36371D01*
X439312Y36461D01*
X439296Y36477D01*
X439285Y36496D01*
X439209Y36563D01*
X439137Y36634D01*
X439113Y36647D01*
X439100Y36658D01*
X439070Y36670D01*
X438990Y36714D01*
X435604Y38117D01*
X431817Y41904D01*
X429767Y46852D01*
X429767Y52208D01*
X431817Y57156D01*
X435604Y60943D01*
X437013Y61527D01*
X437074Y61565D01*
X437139Y61594D01*
X437178Y61629D01*
X437222Y61656D01*
X437268Y61712D01*
X437320Y61760D01*
X437345Y61806D01*
X437379Y61846D01*
X437404Y61913D01*
X437439Y61976D01*
X437448Y62027D01*
X437467Y62075D01*
X437470Y62147D01*
X437483Y62218D01*
X437475Y62269D01*
X437477Y62321D01*
X437457Y62390D01*
X437447Y62461D01*
X437423Y62507D01*
X437409Y62557D01*
X437368Y62616D01*
X437335Y62680D01*
X437298Y62717D01*
X437268Y62759D01*
X437211Y62802D01*
X437160Y62852D01*
X437097Y62887D01*
X437071Y62906D01*
X437049Y62913D01*
X437013Y62933D01*
X435604Y63517D01*
X431817Y67304D01*
X429767Y72252D01*
X429767Y77608D01*
X431817Y82556D01*
X435604Y86343D01*
X437013Y86927D01*
X437074Y86965D01*
X437139Y86994D01*
X437178Y87029D01*
X437222Y87056D01*
X437268Y87112D01*
X437320Y87160D01*
X437345Y87206D01*
X437379Y87246D01*
X437404Y87313D01*
X437439Y87376D01*
X437448Y87427D01*
X437467Y87475D01*
X437470Y87547D01*
X437483Y87618D01*
X437475Y87669D01*
X437477Y87721D01*
X437457Y87790D01*
X437447Y87861D01*
X437423Y87907D01*
X437409Y87957D01*
X437368Y88016D01*
X437335Y88080D01*
X437298Y88117D01*
X437268Y88159D01*
X437211Y88202D01*
X437160Y88252D01*
X437097Y88287D01*
X437071Y88306D01*
X437049Y88313D01*
X437013Y88333D01*
X435604Y88917D01*
X431817Y92704D01*
X429767Y97652D01*
X429767Y103008D01*
X431817Y107956D01*
X435604Y111743D01*
X440552Y113793D01*
X445908Y113793D01*
X450856Y111743D01*
X454643Y107956D01*
X456693Y103008D01*
X456693Y97652D01*
X454643Y92704D01*
X450856Y88917D01*
X449447Y88333D01*
X449386Y88296D01*
X449321Y88266D01*
X449282Y88231D01*
X449238Y88204D01*
X449192Y88148D01*
X449140Y88100D01*
X449115Y88054D01*
X449081Y88014D01*
X449056Y87947D01*
X449021Y87884D01*
X449012Y87833D01*
X448993Y87785D01*
X448990Y87713D01*
X448977Y87642D01*
X448985Y87591D01*
X448983Y87539D01*
X449003Y87470D01*
X449013Y87399D01*
X449037Y87353D01*
X449051Y87303D01*
X449092Y87244D01*
X449125Y87180D01*
X449162Y87143D01*
X449192Y87101D01*
X449249Y87058D01*
X449300Y87008D01*
X449363Y86973D01*
X449389Y86954D01*
X449411Y86947D01*
X449447Y86927D01*
X450856Y86343D01*
X454643Y82556D01*
X456693Y77608D01*
X456693Y72252D01*
X454643Y67304D01*
X450856Y63517D01*
X449447Y62933D01*
X449386Y62896D01*
X449321Y62866D01*
X449282Y62831D01*
X449238Y62804D01*
X449192Y62748D01*
X449140Y62700D01*
X449115Y62654D01*
X449081Y62614D01*
X449056Y62547D01*
X449021Y62484D01*
X449012Y62433D01*
X448993Y62385D01*
X448990Y62313D01*
X448977Y62242D01*
X448985Y62191D01*
X448983Y62139D01*
X449003Y62070D01*
X449013Y61999D01*
X449037Y61953D01*
X449051Y61903D01*
X449092Y61844D01*
X449125Y61780D01*
X449162Y61743D01*
X449192Y61701D01*
X449249Y61658D01*
X449300Y61608D01*
X449363Y61573D01*
X449389Y61554D01*
X449411Y61547D01*
X449447Y61527D01*
X450856Y60943D01*
X454643Y57156D01*
X456693Y52208D01*
X456693Y46852D01*
X454643Y41904D01*
X450856Y38117D01*
X447470Y36714D01*
X447384Y36661D01*
X447295Y36613D01*
X447280Y36596D01*
X447261Y36585D01*
X447197Y36507D01*
X447128Y36433D01*
X447119Y36412D01*
X447104Y36395D01*
X447068Y36301D01*
X447026Y36208D01*
X447024Y36186D01*
X447016Y36166D01*
X447012Y36065D01*
X447002Y35964D01*
X447007Y35942D01*
X447006Y35920D01*
X447034Y35823D01*
X447057Y35724D01*
X447068Y35705D01*
X447074Y35684D01*
X447132Y35601D01*
X447185Y35514D01*
X447202Y35500D01*
X447215Y35482D01*
X447296Y35421D01*
X447374Y35356D01*
X447398Y35345D01*
X447412Y35335D01*
X447443Y35325D01*
X447526Y35287D01*
X447813Y35194D01*
X449487Y34341D01*
X451008Y33236D01*
X452336Y31908D01*
X453441Y30387D01*
X454294Y28713D01*
X454875Y26926D01*
X455076Y25653D01*
X443992Y25653D01*
X443972Y25650D01*
X443953Y25652D01*
X443851Y25630D01*
X443749Y25613D01*
X443732Y25604D01*
X443712Y25600D01*
X443623Y25547D01*
X443532Y25498D01*
X443518Y25484D01*
X443501Y25474D01*
X443434Y25395D01*
X443363Y25320D01*
X443354Y25302D01*
X443341Y25287D01*
X443303Y25191D01*
X443259Y25097D01*
X443257Y25077D01*
X443249Y25059D01*
X443231Y24892D01*
X443231Y24129D01*
X443229Y24129D01*
G37*
%LPD*%
%LPC*%
G36*
X61939Y195353D02*
X61939Y195353D01*
X59055Y196548D01*
X56848Y198755D01*
X55653Y201639D01*
X55653Y204761D01*
X56848Y207645D01*
X57180Y207977D01*
X57233Y208051D01*
X57293Y208121D01*
X57305Y208151D01*
X57324Y208177D01*
X57351Y208264D01*
X57385Y208349D01*
X57389Y208390D01*
X57396Y208412D01*
X57395Y208444D01*
X57403Y208516D01*
X57403Y324884D01*
X57389Y324975D01*
X57381Y325065D01*
X57369Y325095D01*
X57364Y325127D01*
X57321Y325208D01*
X57285Y325292D01*
X57259Y325324D01*
X57248Y325345D01*
X57225Y325367D01*
X57180Y325423D01*
X56848Y325755D01*
X55653Y328639D01*
X55653Y331761D01*
X56848Y334645D01*
X59055Y336852D01*
X61939Y338047D01*
X65061Y338047D01*
X67945Y336852D01*
X70152Y334645D01*
X71347Y331761D01*
X71347Y328639D01*
X70152Y325755D01*
X69820Y325423D01*
X69767Y325349D01*
X69707Y325279D01*
X69695Y325249D01*
X69676Y325223D01*
X69649Y325136D01*
X69615Y325051D01*
X69611Y325010D01*
X69604Y324988D01*
X69605Y324956D01*
X69597Y324884D01*
X69597Y208516D01*
X69611Y208425D01*
X69619Y208335D01*
X69631Y208305D01*
X69636Y208273D01*
X69679Y208192D01*
X69715Y208108D01*
X69741Y208076D01*
X69752Y208055D01*
X69775Y208033D01*
X69820Y207977D01*
X70152Y207645D01*
X71347Y204761D01*
X71347Y201639D01*
X70152Y198755D01*
X67945Y196548D01*
X65061Y195353D01*
X61939Y195353D01*
G37*
%LPD*%
%LPC*%
G36*
X329909Y63273D02*
X329909Y63273D01*
X327025Y64468D01*
X324818Y66675D01*
X323623Y69559D01*
X323623Y72681D01*
X324818Y75565D01*
X325150Y75897D01*
X325204Y75971D01*
X325263Y76041D01*
X325275Y76071D01*
X325294Y76097D01*
X325321Y76184D01*
X325355Y76269D01*
X325359Y76310D01*
X325366Y76332D01*
X325365Y76364D01*
X325373Y76436D01*
X325373Y185184D01*
X325359Y185275D01*
X325351Y185365D01*
X325339Y185395D01*
X325334Y185427D01*
X325291Y185508D01*
X325255Y185592D01*
X325229Y185624D01*
X325218Y185645D01*
X325195Y185667D01*
X325150Y185723D01*
X324818Y186055D01*
X323623Y188939D01*
X323623Y192061D01*
X324818Y194945D01*
X327025Y197152D01*
X329909Y198347D01*
X333031Y198347D01*
X335915Y197152D01*
X338122Y194945D01*
X339317Y192061D01*
X339317Y188939D01*
X338122Y186055D01*
X337790Y185723D01*
X337737Y185649D01*
X337677Y185579D01*
X337665Y185549D01*
X337646Y185523D01*
X337619Y185436D01*
X337585Y185351D01*
X337581Y185310D01*
X337574Y185288D01*
X337575Y185256D01*
X337567Y185184D01*
X337567Y76436D01*
X337581Y76345D01*
X337589Y76254D01*
X337601Y76225D01*
X337606Y76193D01*
X337649Y76112D01*
X337685Y76028D01*
X337711Y75996D01*
X337722Y75975D01*
X337745Y75953D01*
X337790Y75897D01*
X338122Y75565D01*
X339317Y72681D01*
X339317Y69559D01*
X338122Y66675D01*
X335915Y64468D01*
X333031Y63273D01*
X329909Y63273D01*
G37*
%LPD*%
%LPC*%
G36*
X22722Y11937D02*
X22722Y11937D01*
X17774Y13987D01*
X13987Y17774D01*
X11937Y22722D01*
X11937Y28078D01*
X13987Y33026D01*
X17774Y36813D01*
X21160Y38216D01*
X21246Y38269D01*
X21335Y38317D01*
X21350Y38334D01*
X21369Y38345D01*
X21433Y38423D01*
X21502Y38497D01*
X21511Y38518D01*
X21526Y38535D01*
X21562Y38629D01*
X21604Y38722D01*
X21606Y38744D01*
X21614Y38764D01*
X21618Y38865D01*
X21628Y38966D01*
X21623Y38988D01*
X21624Y39010D01*
X21596Y39107D01*
X21573Y39206D01*
X21562Y39225D01*
X21556Y39246D01*
X21498Y39329D01*
X21445Y39416D01*
X21428Y39430D01*
X21415Y39448D01*
X21334Y39509D01*
X21256Y39574D01*
X21232Y39585D01*
X21218Y39595D01*
X21187Y39605D01*
X21104Y39643D01*
X20817Y39736D01*
X19143Y40589D01*
X17622Y41694D01*
X16294Y43022D01*
X15189Y44543D01*
X14336Y46217D01*
X13755Y48004D01*
X13554Y49277D01*
X24638Y49277D01*
X24658Y49280D01*
X24677Y49278D01*
X24779Y49300D01*
X24881Y49317D01*
X24898Y49326D01*
X24918Y49330D01*
X25007Y49383D01*
X25098Y49432D01*
X25112Y49446D01*
X25129Y49456D01*
X25196Y49535D01*
X25267Y49610D01*
X25276Y49628D01*
X25289Y49643D01*
X25327Y49739D01*
X25371Y49833D01*
X25373Y49853D01*
X25381Y49871D01*
X25399Y50038D01*
X25399Y51562D01*
X25396Y51582D01*
X25398Y51601D01*
X25376Y51703D01*
X25359Y51805D01*
X25350Y51822D01*
X25346Y51842D01*
X25293Y51931D01*
X25244Y52022D01*
X25230Y52036D01*
X25220Y52053D01*
X25141Y52120D01*
X25066Y52191D01*
X25048Y52200D01*
X25033Y52213D01*
X24937Y52252D01*
X24843Y52295D01*
X24823Y52297D01*
X24805Y52305D01*
X24638Y52323D01*
X13554Y52323D01*
X13755Y53596D01*
X14336Y55383D01*
X15189Y57057D01*
X16294Y58578D01*
X17622Y59906D01*
X19143Y61011D01*
X20817Y61864D01*
X21104Y61957D01*
X21194Y62004D01*
X21286Y62045D01*
X21302Y62060D01*
X21322Y62070D01*
X21393Y62143D01*
X21467Y62211D01*
X21478Y62231D01*
X21493Y62247D01*
X21537Y62337D01*
X21586Y62427D01*
X21590Y62449D01*
X21599Y62469D01*
X21612Y62569D01*
X21630Y62669D01*
X21626Y62691D01*
X21629Y62713D01*
X21609Y62812D01*
X21594Y62912D01*
X21584Y62932D01*
X21579Y62954D01*
X21528Y63041D01*
X21482Y63131D01*
X21466Y63147D01*
X21455Y63166D01*
X21379Y63233D01*
X21307Y63304D01*
X21283Y63317D01*
X21270Y63328D01*
X21252Y63335D01*
X21249Y63338D01*
X21232Y63345D01*
X21160Y63384D01*
X17774Y64787D01*
X13987Y68574D01*
X11937Y73522D01*
X11937Y78878D01*
X13987Y83826D01*
X17774Y87613D01*
X22722Y89663D01*
X28078Y89663D01*
X33026Y87613D01*
X36813Y83826D01*
X38863Y78878D01*
X38863Y73522D01*
X36813Y68574D01*
X33026Y64787D01*
X29640Y63384D01*
X29554Y63331D01*
X29465Y63283D01*
X29450Y63266D01*
X29431Y63255D01*
X29367Y63177D01*
X29298Y63103D01*
X29289Y63082D01*
X29274Y63065D01*
X29238Y62971D01*
X29196Y62878D01*
X29194Y62856D01*
X29186Y62836D01*
X29182Y62735D01*
X29172Y62634D01*
X29177Y62612D01*
X29176Y62590D01*
X29204Y62493D01*
X29227Y62394D01*
X29238Y62375D01*
X29244Y62354D01*
X29302Y62270D01*
X29355Y62184D01*
X29372Y62170D01*
X29385Y62152D01*
X29466Y62091D01*
X29544Y62026D01*
X29568Y62015D01*
X29582Y62005D01*
X29613Y61995D01*
X29696Y61957D01*
X29983Y61864D01*
X31657Y61011D01*
X33178Y59906D01*
X34506Y58578D01*
X35611Y57057D01*
X36464Y55383D01*
X37045Y53596D01*
X37246Y52323D01*
X26162Y52323D01*
X26142Y52320D01*
X26123Y52322D01*
X26021Y52300D01*
X25919Y52283D01*
X25902Y52274D01*
X25882Y52270D01*
X25793Y52217D01*
X25702Y52168D01*
X25688Y52154D01*
X25671Y52144D01*
X25604Y52065D01*
X25533Y51990D01*
X25524Y51972D01*
X25511Y51957D01*
X25473Y51861D01*
X25429Y51767D01*
X25427Y51747D01*
X25419Y51729D01*
X25401Y51562D01*
X25401Y50038D01*
X25404Y50018D01*
X25402Y49999D01*
X25424Y49897D01*
X25441Y49795D01*
X25450Y49778D01*
X25454Y49758D01*
X25507Y49669D01*
X25556Y49578D01*
X25570Y49564D01*
X25580Y49547D01*
X25659Y49480D01*
X25734Y49409D01*
X25752Y49400D01*
X25767Y49387D01*
X25863Y49348D01*
X25957Y49305D01*
X25977Y49303D01*
X25995Y49295D01*
X26162Y49277D01*
X37246Y49277D01*
X37045Y48004D01*
X36464Y46217D01*
X35611Y44543D01*
X34506Y43022D01*
X33178Y41694D01*
X31657Y40589D01*
X29983Y39736D01*
X29696Y39643D01*
X29606Y39596D01*
X29514Y39555D01*
X29498Y39540D01*
X29478Y39530D01*
X29407Y39457D01*
X29333Y39389D01*
X29322Y39369D01*
X29307Y39353D01*
X29263Y39262D01*
X29214Y39173D01*
X29210Y39151D01*
X29201Y39131D01*
X29188Y39031D01*
X29170Y38931D01*
X29174Y38909D01*
X29171Y38887D01*
X29191Y38788D01*
X29206Y38688D01*
X29216Y38668D01*
X29221Y38646D01*
X29272Y38559D01*
X29318Y38469D01*
X29334Y38453D01*
X29345Y38434D01*
X29421Y38367D01*
X29493Y38296D01*
X29517Y38283D01*
X29530Y38272D01*
X29560Y38260D01*
X29640Y38216D01*
X33026Y36813D01*
X36813Y33026D01*
X38863Y28078D01*
X38863Y22722D01*
X36813Y17774D01*
X33026Y13987D01*
X28078Y11937D01*
X22722Y11937D01*
G37*
%LPD*%
%LPC*%
G36*
X74639Y17553D02*
X74639Y17553D01*
X71755Y18748D01*
X69548Y20955D01*
X68353Y23839D01*
X68353Y26961D01*
X69548Y29845D01*
X69880Y30177D01*
X69922Y30236D01*
X69970Y30286D01*
X69979Y30304D01*
X69993Y30321D01*
X70005Y30351D01*
X70024Y30377D01*
X70046Y30449D01*
X70074Y30509D01*
X70076Y30527D01*
X70085Y30549D01*
X70089Y30590D01*
X70096Y30612D01*
X70095Y30644D01*
X70103Y30716D01*
X70103Y121684D01*
X70089Y121775D01*
X70081Y121865D01*
X70069Y121895D01*
X70064Y121927D01*
X70021Y122008D01*
X69985Y122092D01*
X69959Y122124D01*
X69948Y122145D01*
X69925Y122167D01*
X69880Y122223D01*
X69548Y122555D01*
X68353Y125439D01*
X68353Y128561D01*
X69548Y131445D01*
X71755Y133652D01*
X74639Y134847D01*
X77761Y134847D01*
X80645Y133652D01*
X82852Y131445D01*
X84047Y128561D01*
X84047Y125439D01*
X82852Y122555D01*
X82520Y122223D01*
X82467Y122149D01*
X82407Y122079D01*
X82395Y122049D01*
X82376Y122023D01*
X82349Y121936D01*
X82315Y121851D01*
X82311Y121810D01*
X82304Y121788D01*
X82305Y121756D01*
X82297Y121684D01*
X82297Y30716D01*
X82301Y30692D01*
X82299Y30675D01*
X82313Y30612D01*
X82319Y30535D01*
X82331Y30505D01*
X82336Y30473D01*
X82347Y30453D01*
X82351Y30435D01*
X82386Y30377D01*
X82415Y30308D01*
X82441Y30276D01*
X82452Y30255D01*
X82467Y30241D01*
X82477Y30224D01*
X82494Y30209D01*
X82520Y30177D01*
X82852Y29845D01*
X84047Y26961D01*
X84047Y23839D01*
X82852Y20955D01*
X80645Y18748D01*
X77761Y17553D01*
X74639Y17553D01*
G37*
%LPD*%
%LPC*%
G36*
X353721Y427481D02*
X353721Y427481D01*
X347471Y433731D01*
X347471Y442569D01*
X353721Y448819D01*
X359871Y448819D01*
X359961Y448833D01*
X360052Y448841D01*
X360082Y448853D01*
X360114Y448858D01*
X360195Y448901D01*
X360279Y448937D01*
X360311Y448963D01*
X360331Y448974D01*
X360354Y448997D01*
X360410Y449042D01*
X373736Y462369D01*
X375977Y463297D01*
X383124Y463297D01*
X383214Y463311D01*
X383305Y463319D01*
X383334Y463331D01*
X383366Y463336D01*
X383447Y463379D01*
X383531Y463415D01*
X383563Y463441D01*
X383584Y463452D01*
X383606Y463475D01*
X383662Y463520D01*
X388011Y467869D01*
X396849Y467869D01*
X403099Y461619D01*
X403099Y452781D01*
X396849Y446531D01*
X394624Y446531D01*
X394554Y446520D01*
X394482Y446518D01*
X394433Y446500D01*
X394382Y446492D01*
X394318Y446458D01*
X394251Y446433D01*
X394210Y446401D01*
X394164Y446376D01*
X394115Y446324D01*
X394059Y446280D01*
X394031Y446236D01*
X393995Y446198D01*
X393965Y446133D01*
X393926Y446073D01*
X393913Y446022D01*
X393891Y445975D01*
X393883Y445904D01*
X393866Y445834D01*
X393870Y445782D01*
X393864Y445731D01*
X393879Y445660D01*
X393885Y445589D01*
X393905Y445541D01*
X393916Y445490D01*
X393953Y445429D01*
X393981Y445363D01*
X394026Y445307D01*
X394043Y445279D01*
X394060Y445264D01*
X394086Y445232D01*
X396749Y442569D01*
X396749Y433731D01*
X390499Y427481D01*
X381661Y427481D01*
X375411Y433731D01*
X375411Y442569D01*
X381661Y448819D01*
X383886Y448819D01*
X383956Y448830D01*
X384028Y448832D01*
X384077Y448850D01*
X384128Y448858D01*
X384192Y448892D01*
X384259Y448917D01*
X384300Y448949D01*
X384346Y448974D01*
X384395Y449026D01*
X384451Y449070D01*
X384479Y449114D01*
X384515Y449152D01*
X384545Y449217D01*
X384584Y449277D01*
X384597Y449328D01*
X384619Y449375D01*
X384627Y449446D01*
X384644Y449516D01*
X384640Y449568D01*
X384646Y449619D01*
X384631Y449690D01*
X384625Y449761D01*
X384605Y449809D01*
X384594Y449860D01*
X384557Y449921D01*
X384529Y449987D01*
X384484Y450043D01*
X384467Y450071D01*
X384450Y450086D01*
X384424Y450118D01*
X383662Y450880D01*
X383588Y450933D01*
X383518Y450993D01*
X383488Y451005D01*
X383462Y451024D01*
X383375Y451051D01*
X383290Y451085D01*
X383249Y451089D01*
X383227Y451096D01*
X383195Y451095D01*
X383124Y451103D01*
X380031Y451103D01*
X379941Y451089D01*
X379850Y451081D01*
X379820Y451069D01*
X379788Y451064D01*
X379707Y451021D01*
X379623Y450985D01*
X379591Y450959D01*
X379571Y450948D01*
X379548Y450925D01*
X379492Y450880D01*
X369032Y440420D01*
X368979Y440346D01*
X368919Y440276D01*
X368907Y440246D01*
X368888Y440220D01*
X368861Y440133D01*
X368827Y440048D01*
X368823Y440007D01*
X368816Y439985D01*
X368817Y439953D01*
X368809Y439881D01*
X368809Y433731D01*
X362559Y427481D01*
X353721Y427481D01*
G37*
%LPD*%
%LPC*%
G36*
X87339Y182653D02*
X87339Y182653D01*
X84455Y183848D01*
X82248Y186055D01*
X81053Y188939D01*
X81053Y192061D01*
X82248Y194945D01*
X82580Y195277D01*
X82633Y195351D01*
X82693Y195421D01*
X82705Y195451D01*
X82724Y195477D01*
X82751Y195564D01*
X82785Y195649D01*
X82789Y195690D01*
X82796Y195712D01*
X82795Y195744D01*
X82803Y195816D01*
X82803Y274084D01*
X82789Y274175D01*
X82781Y274265D01*
X82769Y274295D01*
X82764Y274327D01*
X82721Y274408D01*
X82685Y274492D01*
X82659Y274524D01*
X82648Y274545D01*
X82625Y274567D01*
X82580Y274623D01*
X82248Y274955D01*
X81053Y277839D01*
X81053Y280961D01*
X82248Y283845D01*
X84455Y286052D01*
X87339Y287247D01*
X90461Y287247D01*
X93345Y286052D01*
X95552Y283845D01*
X96747Y280961D01*
X96747Y277839D01*
X95552Y274955D01*
X95220Y274623D01*
X95167Y274549D01*
X95107Y274479D01*
X95095Y274449D01*
X95076Y274423D01*
X95049Y274336D01*
X95015Y274251D01*
X95011Y274210D01*
X95004Y274188D01*
X95005Y274156D01*
X94997Y274084D01*
X94997Y195816D01*
X95011Y195725D01*
X95019Y195635D01*
X95031Y195605D01*
X95036Y195573D01*
X95079Y195492D01*
X95115Y195408D01*
X95141Y195376D01*
X95152Y195355D01*
X95175Y195333D01*
X95220Y195277D01*
X95552Y194945D01*
X96747Y192061D01*
X96747Y188939D01*
X95552Y186055D01*
X93345Y183848D01*
X90461Y182653D01*
X87339Y182653D01*
G37*
%LPD*%
%LPC*%
G36*
X392139Y119153D02*
X392139Y119153D01*
X389255Y120348D01*
X387048Y122555D01*
X385853Y125439D01*
X385853Y128561D01*
X387048Y131445D01*
X387380Y131777D01*
X387433Y131851D01*
X387493Y131921D01*
X387505Y131951D01*
X387524Y131977D01*
X387551Y132064D01*
X387585Y132149D01*
X387589Y132190D01*
X387596Y132212D01*
X387595Y132244D01*
X387603Y132316D01*
X387603Y209314D01*
X387589Y209405D01*
X387581Y209495D01*
X387569Y209525D01*
X387564Y209557D01*
X387521Y209638D01*
X387485Y209722D01*
X387459Y209754D01*
X387448Y209775D01*
X387425Y209797D01*
X387380Y209853D01*
X387048Y210185D01*
X385853Y213069D01*
X385853Y216191D01*
X387048Y219075D01*
X389255Y221282D01*
X392139Y222477D01*
X395261Y222477D01*
X398145Y221282D01*
X400352Y219075D01*
X401547Y216191D01*
X401547Y213069D01*
X400352Y210185D01*
X400020Y209853D01*
X399967Y209779D01*
X399907Y209709D01*
X399895Y209679D01*
X399876Y209653D01*
X399849Y209566D01*
X399815Y209481D01*
X399811Y209440D01*
X399804Y209418D01*
X399805Y209386D01*
X399797Y209314D01*
X399797Y132316D01*
X399811Y132225D01*
X399819Y132135D01*
X399831Y132105D01*
X399836Y132073D01*
X399879Y131992D01*
X399915Y131908D01*
X399941Y131876D01*
X399952Y131855D01*
X399975Y131833D01*
X400020Y131777D01*
X400352Y131445D01*
X401547Y128561D01*
X401547Y125439D01*
X400352Y122555D01*
X398145Y120348D01*
X395261Y119153D01*
X392139Y119153D01*
G37*
%LPD*%
%LPC*%
G36*
X104801Y346201D02*
X104801Y346201D01*
X98551Y352451D01*
X98551Y361289D01*
X102900Y365638D01*
X102953Y365712D01*
X103013Y365782D01*
X103025Y365812D01*
X103044Y365838D01*
X103071Y365925D01*
X103105Y366010D01*
X103109Y366051D01*
X103116Y366073D01*
X103115Y366105D01*
X103123Y366176D01*
X103123Y378403D01*
X104051Y380644D01*
X140520Y417112D01*
X140573Y417186D01*
X140633Y417256D01*
X140645Y417286D01*
X140664Y417312D01*
X140691Y417399D01*
X140725Y417484D01*
X140729Y417525D01*
X140736Y417547D01*
X140735Y417579D01*
X140743Y417651D01*
X140743Y418121D01*
X141938Y421005D01*
X144145Y423212D01*
X147029Y424407D01*
X150151Y424407D01*
X153035Y423212D01*
X155242Y421005D01*
X156437Y418121D01*
X156437Y414999D01*
X155242Y412115D01*
X153035Y409908D01*
X150151Y408713D01*
X149681Y408713D01*
X149591Y408699D01*
X149500Y408691D01*
X149470Y408679D01*
X149438Y408674D01*
X149357Y408631D01*
X149273Y408595D01*
X149241Y408569D01*
X149221Y408558D01*
X149198Y408535D01*
X149142Y408490D01*
X115540Y374888D01*
X115487Y374814D01*
X115427Y374744D01*
X115415Y374714D01*
X115396Y374688D01*
X115369Y374601D01*
X115335Y374516D01*
X115331Y374475D01*
X115324Y374453D01*
X115325Y374421D01*
X115317Y374349D01*
X115317Y366176D01*
X115331Y366086D01*
X115339Y365995D01*
X115351Y365966D01*
X115356Y365934D01*
X115399Y365853D01*
X115435Y365769D01*
X115461Y365737D01*
X115472Y365716D01*
X115495Y365694D01*
X115540Y365638D01*
X119889Y361289D01*
X119889Y352451D01*
X113639Y346201D01*
X104801Y346201D01*
G37*
%LPD*%
%LPC*%
G36*
X403722Y61467D02*
X403722Y61467D01*
X398774Y63517D01*
X394987Y67304D01*
X392937Y72252D01*
X392937Y77608D01*
X394987Y82556D01*
X398774Y86343D01*
X400183Y86927D01*
X400244Y86964D01*
X400309Y86994D01*
X400348Y87029D01*
X400392Y87056D01*
X400438Y87112D01*
X400490Y87160D01*
X400515Y87206D01*
X400549Y87246D01*
X400574Y87313D01*
X400609Y87376D01*
X400618Y87427D01*
X400637Y87475D01*
X400640Y87547D01*
X400653Y87618D01*
X400645Y87669D01*
X400647Y87721D01*
X400627Y87790D01*
X400617Y87861D01*
X400593Y87907D01*
X400579Y87957D01*
X400538Y88016D01*
X400505Y88080D01*
X400468Y88117D01*
X400438Y88159D01*
X400381Y88202D01*
X400330Y88252D01*
X400267Y88287D01*
X400241Y88306D01*
X400219Y88313D01*
X400183Y88333D01*
X398774Y88917D01*
X394987Y92704D01*
X392937Y97652D01*
X392937Y103008D01*
X394987Y107956D01*
X398774Y111743D01*
X403722Y113793D01*
X409078Y113793D01*
X414026Y111743D01*
X417813Y107956D01*
X419863Y103008D01*
X419863Y97652D01*
X417813Y92704D01*
X414026Y88917D01*
X412617Y88333D01*
X412556Y88295D01*
X412491Y88266D01*
X412452Y88231D01*
X412408Y88204D01*
X412362Y88148D01*
X412310Y88100D01*
X412285Y88054D01*
X412251Y88014D01*
X412226Y87947D01*
X412191Y87884D01*
X412182Y87833D01*
X412163Y87785D01*
X412160Y87713D01*
X412147Y87642D01*
X412155Y87591D01*
X412153Y87539D01*
X412173Y87470D01*
X412183Y87399D01*
X412207Y87353D01*
X412221Y87303D01*
X412262Y87244D01*
X412295Y87180D01*
X412332Y87143D01*
X412362Y87101D01*
X412419Y87058D01*
X412470Y87008D01*
X412533Y86973D01*
X412559Y86954D01*
X412581Y86947D01*
X412617Y86927D01*
X414026Y86343D01*
X417813Y82556D01*
X419863Y77608D01*
X419863Y72252D01*
X417813Y67304D01*
X414026Y63517D01*
X409078Y61467D01*
X403722Y61467D01*
G37*
%LPD*%
%LPC*%
G36*
X186081Y103631D02*
X186081Y103631D01*
X179831Y109881D01*
X179831Y118719D01*
X186081Y124969D01*
X194919Y124969D01*
X199360Y120528D01*
X199376Y120517D01*
X199388Y120501D01*
X199476Y120445D01*
X199559Y120385D01*
X199578Y120379D01*
X199595Y120368D01*
X199696Y120343D01*
X199795Y120312D01*
X199814Y120313D01*
X199834Y120308D01*
X199937Y120316D01*
X200040Y120319D01*
X200059Y120325D01*
X200079Y120327D01*
X200174Y120367D01*
X200271Y120403D01*
X200287Y120416D01*
X200305Y120423D01*
X200436Y120528D01*
X203253Y123345D01*
X207174Y124969D01*
X224626Y124969D01*
X228547Y123345D01*
X231549Y120343D01*
X233173Y116422D01*
X233173Y112178D01*
X231549Y108257D01*
X228547Y105255D01*
X224626Y103631D01*
X207174Y103631D01*
X203253Y105255D01*
X200436Y108072D01*
X200420Y108083D01*
X200408Y108099D01*
X200320Y108155D01*
X200237Y108215D01*
X200218Y108221D01*
X200201Y108232D01*
X200100Y108257D01*
X200001Y108288D01*
X199982Y108287D01*
X199962Y108292D01*
X199859Y108284D01*
X199756Y108281D01*
X199737Y108275D01*
X199717Y108273D01*
X199622Y108233D01*
X199525Y108197D01*
X199509Y108184D01*
X199491Y108177D01*
X199360Y108072D01*
X194919Y103631D01*
X186081Y103631D01*
G37*
%LPD*%
%LPC*%
G36*
X283374Y205231D02*
X283374Y205231D01*
X279453Y206855D01*
X276451Y209857D01*
X274827Y213778D01*
X274827Y218022D01*
X276451Y221943D01*
X279453Y224945D01*
X283374Y226569D01*
X300826Y226569D01*
X304747Y224945D01*
X307564Y222128D01*
X307580Y222117D01*
X307592Y222101D01*
X307680Y222045D01*
X307763Y221985D01*
X307782Y221979D01*
X307799Y221968D01*
X307900Y221943D01*
X307999Y221912D01*
X308018Y221913D01*
X308038Y221908D01*
X308141Y221916D01*
X308244Y221919D01*
X308263Y221925D01*
X308283Y221927D01*
X308378Y221967D01*
X308475Y222003D01*
X308491Y222016D01*
X308509Y222023D01*
X308640Y222128D01*
X313081Y226569D01*
X321919Y226569D01*
X328169Y220319D01*
X328169Y211481D01*
X321919Y205231D01*
X313081Y205231D01*
X308640Y209672D01*
X308624Y209683D01*
X308612Y209699D01*
X308524Y209755D01*
X308441Y209815D01*
X308422Y209821D01*
X308405Y209832D01*
X308304Y209857D01*
X308205Y209888D01*
X308186Y209887D01*
X308166Y209892D01*
X308063Y209884D01*
X307960Y209881D01*
X307941Y209875D01*
X307921Y209873D01*
X307826Y209833D01*
X307729Y209797D01*
X307713Y209784D01*
X307695Y209777D01*
X307564Y209672D01*
X304747Y206855D01*
X300826Y205231D01*
X283374Y205231D01*
G37*
%LPD*%
%LPC*%
G36*
X347689Y106453D02*
X347689Y106453D01*
X344805Y107648D01*
X342598Y109855D01*
X341403Y112739D01*
X341403Y115861D01*
X342598Y118745D01*
X342930Y119077D01*
X342983Y119151D01*
X343043Y119221D01*
X343055Y119251D01*
X343074Y119277D01*
X343101Y119364D01*
X343135Y119449D01*
X343139Y119490D01*
X343146Y119512D01*
X343145Y119544D01*
X343153Y119616D01*
X343153Y161054D01*
X343139Y161145D01*
X343131Y161235D01*
X343119Y161265D01*
X343114Y161297D01*
X343071Y161378D01*
X343035Y161462D01*
X343009Y161494D01*
X342998Y161515D01*
X342975Y161537D01*
X342930Y161593D01*
X342598Y161925D01*
X341403Y164809D01*
X341403Y167931D01*
X342598Y170815D01*
X344805Y173022D01*
X347689Y174217D01*
X350811Y174217D01*
X353695Y173022D01*
X355902Y170815D01*
X357097Y167931D01*
X357097Y164809D01*
X355902Y161925D01*
X355570Y161593D01*
X355517Y161519D01*
X355457Y161449D01*
X355445Y161419D01*
X355426Y161393D01*
X355399Y161306D01*
X355365Y161221D01*
X355361Y161180D01*
X355354Y161158D01*
X355355Y161126D01*
X355347Y161054D01*
X355347Y119616D01*
X355361Y119525D01*
X355369Y119435D01*
X355381Y119405D01*
X355386Y119373D01*
X355429Y119292D01*
X355465Y119208D01*
X355491Y119176D01*
X355502Y119155D01*
X355525Y119133D01*
X355570Y119077D01*
X355902Y118745D01*
X357097Y115861D01*
X357097Y112739D01*
X355902Y109855D01*
X353695Y107648D01*
X350811Y106453D01*
X347689Y106453D01*
G37*
%LPD*%
%LPC*%
G36*
X366739Y81053D02*
X366739Y81053D01*
X363855Y82248D01*
X361648Y84455D01*
X360453Y87339D01*
X360453Y90461D01*
X361648Y93345D01*
X361980Y93677D01*
X362033Y93751D01*
X362093Y93821D01*
X362105Y93851D01*
X362124Y93877D01*
X362151Y93964D01*
X362185Y94049D01*
X362189Y94090D01*
X362196Y94112D01*
X362195Y94144D01*
X362203Y94216D01*
X362203Y134384D01*
X362189Y134475D01*
X362181Y134565D01*
X362169Y134595D01*
X362164Y134627D01*
X362121Y134708D01*
X362085Y134792D01*
X362059Y134824D01*
X362048Y134845D01*
X362025Y134867D01*
X361980Y134923D01*
X361648Y135255D01*
X360453Y138139D01*
X360453Y141261D01*
X361648Y144145D01*
X363855Y146352D01*
X366739Y147547D01*
X369861Y147547D01*
X372745Y146352D01*
X374952Y144145D01*
X376147Y141261D01*
X376147Y138139D01*
X374952Y135255D01*
X374620Y134923D01*
X374567Y134849D01*
X374507Y134779D01*
X374495Y134749D01*
X374476Y134723D01*
X374449Y134636D01*
X374415Y134551D01*
X374411Y134510D01*
X374404Y134488D01*
X374405Y134456D01*
X374397Y134384D01*
X374397Y94216D01*
X374411Y94125D01*
X374419Y94035D01*
X374431Y94005D01*
X374436Y93973D01*
X374479Y93892D01*
X374515Y93808D01*
X374541Y93776D01*
X374552Y93755D01*
X374575Y93733D01*
X374620Y93677D01*
X374952Y93345D01*
X376147Y90461D01*
X376147Y87339D01*
X374952Y84455D01*
X372745Y82248D01*
X369861Y81053D01*
X366739Y81053D01*
G37*
%LPD*%
%LPC*%
G36*
X152399Y24129D02*
X152399Y24129D01*
X152399Y24892D01*
X152396Y24912D01*
X152398Y24931D01*
X152376Y25033D01*
X152359Y25135D01*
X152350Y25152D01*
X152346Y25172D01*
X152293Y25261D01*
X152244Y25352D01*
X152230Y25366D01*
X152220Y25383D01*
X152141Y25450D01*
X152066Y25521D01*
X152048Y25530D01*
X152033Y25543D01*
X151937Y25582D01*
X151843Y25625D01*
X151823Y25627D01*
X151805Y25635D01*
X151638Y25653D01*
X140554Y25653D01*
X140755Y26926D01*
X141336Y28713D01*
X142189Y30387D01*
X143294Y31908D01*
X144622Y33236D01*
X146143Y34341D01*
X147817Y35194D01*
X148104Y35287D01*
X148194Y35334D01*
X148286Y35375D01*
X148302Y35390D01*
X148322Y35400D01*
X148393Y35473D01*
X148467Y35541D01*
X148478Y35561D01*
X148493Y35577D01*
X148537Y35668D01*
X148586Y35757D01*
X148590Y35779D01*
X148599Y35799D01*
X148612Y35899D01*
X148630Y35999D01*
X148626Y36021D01*
X148629Y36043D01*
X148609Y36142D01*
X148594Y36242D01*
X148584Y36262D01*
X148579Y36284D01*
X148528Y36371D01*
X148482Y36461D01*
X148466Y36477D01*
X148455Y36496D01*
X148379Y36563D01*
X148307Y36634D01*
X148283Y36647D01*
X148270Y36658D01*
X148240Y36670D01*
X148160Y36714D01*
X144774Y38117D01*
X140987Y41904D01*
X138937Y46852D01*
X138937Y52208D01*
X140987Y57156D01*
X144774Y60943D01*
X149722Y62993D01*
X155078Y62993D01*
X160026Y60943D01*
X163813Y57156D01*
X165863Y52208D01*
X165863Y46852D01*
X163813Y41904D01*
X160026Y38117D01*
X156640Y36714D01*
X156554Y36661D01*
X156465Y36613D01*
X156450Y36596D01*
X156431Y36585D01*
X156367Y36507D01*
X156298Y36433D01*
X156289Y36412D01*
X156274Y36395D01*
X156238Y36301D01*
X156196Y36208D01*
X156194Y36186D01*
X156186Y36166D01*
X156182Y36065D01*
X156172Y35964D01*
X156177Y35942D01*
X156176Y35920D01*
X156204Y35823D01*
X156227Y35724D01*
X156238Y35705D01*
X156244Y35684D01*
X156302Y35601D01*
X156355Y35514D01*
X156372Y35500D01*
X156385Y35482D01*
X156466Y35421D01*
X156544Y35356D01*
X156568Y35345D01*
X156582Y35335D01*
X156613Y35325D01*
X156696Y35287D01*
X156983Y35194D01*
X158657Y34341D01*
X160178Y33236D01*
X161506Y31908D01*
X162611Y30387D01*
X163464Y28713D01*
X164045Y26926D01*
X164246Y25653D01*
X153162Y25653D01*
X153142Y25650D01*
X153123Y25652D01*
X153021Y25630D01*
X152919Y25613D01*
X152902Y25604D01*
X152882Y25600D01*
X152793Y25547D01*
X152702Y25498D01*
X152688Y25484D01*
X152671Y25474D01*
X152604Y25395D01*
X152533Y25320D01*
X152524Y25302D01*
X152511Y25287D01*
X152473Y25191D01*
X152429Y25097D01*
X152427Y25077D01*
X152419Y25059D01*
X152401Y24892D01*
X152401Y24129D01*
X152399Y24129D01*
G37*
%LPD*%
%LPC*%
G36*
X207174Y357631D02*
X207174Y357631D01*
X203253Y359255D01*
X200251Y362257D01*
X198627Y366178D01*
X198627Y370422D01*
X200251Y374343D01*
X203253Y377345D01*
X207174Y378969D01*
X224626Y378969D01*
X228547Y377345D01*
X231549Y374343D01*
X233173Y370422D01*
X233173Y366178D01*
X231549Y362257D01*
X228547Y359255D01*
X224626Y357631D01*
X207174Y357631D01*
G37*
%LPD*%
%LPC*%
G36*
X283374Y129031D02*
X283374Y129031D01*
X279453Y130655D01*
X276451Y133657D01*
X274827Y137578D01*
X274827Y141822D01*
X276451Y145743D01*
X279453Y148745D01*
X283374Y150369D01*
X300826Y150369D01*
X304747Y148745D01*
X307749Y145743D01*
X309373Y141822D01*
X309373Y137578D01*
X307749Y133657D01*
X304747Y130655D01*
X300826Y129031D01*
X283374Y129031D01*
G37*
%LPD*%
%LPC*%
G36*
X283374Y332231D02*
X283374Y332231D01*
X279453Y333855D01*
X276451Y336857D01*
X274827Y340778D01*
X274827Y345022D01*
X276451Y348943D01*
X279453Y351945D01*
X283374Y353569D01*
X300826Y353569D01*
X304747Y351945D01*
X307749Y348943D01*
X309373Y345022D01*
X309373Y340778D01*
X307749Y336857D01*
X304747Y333855D01*
X300826Y332231D01*
X283374Y332231D01*
G37*
%LPD*%
%LPC*%
G36*
X207174Y129031D02*
X207174Y129031D01*
X203253Y130655D01*
X200251Y133657D01*
X198627Y137578D01*
X198627Y141822D01*
X200251Y145743D01*
X203253Y148745D01*
X207174Y150369D01*
X224626Y150369D01*
X228547Y148745D01*
X231549Y145743D01*
X233173Y141822D01*
X233173Y137578D01*
X231549Y133657D01*
X228547Y130655D01*
X224626Y129031D01*
X207174Y129031D01*
G37*
%LPD*%
%LPC*%
G36*
X283374Y230631D02*
X283374Y230631D01*
X279453Y232255D01*
X276451Y235257D01*
X274827Y239178D01*
X274827Y243422D01*
X276451Y247343D01*
X279453Y250345D01*
X283374Y251969D01*
X300826Y251969D01*
X304747Y250345D01*
X307749Y247343D01*
X309373Y243422D01*
X309373Y239178D01*
X307749Y235257D01*
X304747Y232255D01*
X300826Y230631D01*
X283374Y230631D01*
G37*
%LPD*%
%LPC*%
G36*
X283374Y357631D02*
X283374Y357631D01*
X279453Y359255D01*
X276451Y362257D01*
X274827Y366178D01*
X274827Y370422D01*
X276451Y374343D01*
X279453Y377345D01*
X283374Y378969D01*
X300826Y378969D01*
X304747Y377345D01*
X307749Y374343D01*
X309373Y370422D01*
X309373Y366178D01*
X307749Y362257D01*
X304747Y359255D01*
X300826Y357631D01*
X283374Y357631D01*
G37*
%LPD*%
%LPC*%
G36*
X207174Y205231D02*
X207174Y205231D01*
X203253Y206855D01*
X200251Y209857D01*
X198627Y213778D01*
X198627Y218022D01*
X200251Y221943D01*
X203253Y224945D01*
X207174Y226569D01*
X224626Y226569D01*
X228547Y224945D01*
X231549Y221943D01*
X233173Y218022D01*
X233173Y213778D01*
X231549Y209857D01*
X228547Y206855D01*
X224626Y205231D01*
X207174Y205231D01*
G37*
%LPD*%
%LPC*%
G36*
X283374Y256031D02*
X283374Y256031D01*
X279453Y257655D01*
X276451Y260657D01*
X274827Y264578D01*
X274827Y268822D01*
X276451Y272743D01*
X279453Y275745D01*
X283374Y277369D01*
X300826Y277369D01*
X304747Y275745D01*
X307749Y272743D01*
X309373Y268822D01*
X309373Y264578D01*
X307749Y260657D01*
X304747Y257655D01*
X300826Y256031D01*
X283374Y256031D01*
G37*
%LPD*%
%LPC*%
G36*
X283374Y103631D02*
X283374Y103631D01*
X279453Y105255D01*
X276451Y108257D01*
X274827Y112178D01*
X274827Y116422D01*
X276451Y120343D01*
X279453Y123345D01*
X283374Y124969D01*
X300826Y124969D01*
X304747Y123345D01*
X307749Y120343D01*
X309373Y116422D01*
X309373Y112178D01*
X307749Y108257D01*
X304747Y105255D01*
X300826Y103631D01*
X283374Y103631D01*
G37*
%LPD*%
%LPC*%
G36*
X207174Y383031D02*
X207174Y383031D01*
X203253Y384655D01*
X200251Y387657D01*
X198627Y391578D01*
X198627Y395822D01*
X200251Y399743D01*
X203253Y402745D01*
X207174Y404369D01*
X224626Y404369D01*
X228547Y402745D01*
X231549Y399743D01*
X233173Y395822D01*
X233173Y391578D01*
X231549Y387657D01*
X228547Y384655D01*
X224626Y383031D01*
X207174Y383031D01*
G37*
%LPD*%
%LPC*%
G36*
X207174Y179831D02*
X207174Y179831D01*
X203253Y181455D01*
X200251Y184457D01*
X198627Y188378D01*
X198627Y192622D01*
X200251Y196543D01*
X203253Y199545D01*
X207174Y201169D01*
X224626Y201169D01*
X228547Y199545D01*
X231549Y196543D01*
X233173Y192622D01*
X233173Y188378D01*
X231549Y184457D01*
X228547Y181455D01*
X224626Y179831D01*
X207174Y179831D01*
G37*
%LPD*%
%LPC*%
G36*
X207174Y281431D02*
X207174Y281431D01*
X203253Y283055D01*
X200251Y286057D01*
X198627Y289978D01*
X198627Y294222D01*
X200251Y298143D01*
X203253Y301145D01*
X207174Y302769D01*
X224626Y302769D01*
X228547Y301145D01*
X231549Y298143D01*
X233173Y294222D01*
X233173Y289978D01*
X231549Y286057D01*
X228547Y283055D01*
X224626Y281431D01*
X207174Y281431D01*
G37*
%LPD*%
%LPC*%
G36*
X283374Y281431D02*
X283374Y281431D01*
X279453Y283055D01*
X276451Y286057D01*
X274827Y289978D01*
X274827Y294222D01*
X276451Y298143D01*
X279453Y301145D01*
X283374Y302769D01*
X300826Y302769D01*
X304747Y301145D01*
X307749Y298143D01*
X309373Y294222D01*
X309373Y289978D01*
X307749Y286057D01*
X304747Y283055D01*
X300826Y281431D01*
X283374Y281431D01*
G37*
%LPD*%
%LPC*%
G36*
X283374Y306831D02*
X283374Y306831D01*
X279453Y308455D01*
X276451Y311457D01*
X274827Y315378D01*
X274827Y319622D01*
X276451Y323543D01*
X279453Y326545D01*
X283374Y328169D01*
X300826Y328169D01*
X304747Y326545D01*
X307749Y323543D01*
X309373Y319622D01*
X309373Y315378D01*
X307749Y311457D01*
X304747Y308455D01*
X300826Y306831D01*
X283374Y306831D01*
G37*
%LPD*%
%LPC*%
G36*
X207174Y78231D02*
X207174Y78231D01*
X203253Y79855D01*
X200251Y82857D01*
X198627Y86778D01*
X198627Y91022D01*
X200251Y94943D01*
X203253Y97945D01*
X207174Y99569D01*
X224626Y99569D01*
X228547Y97945D01*
X231549Y94943D01*
X233173Y91022D01*
X233173Y86778D01*
X231549Y82857D01*
X228547Y79855D01*
X224626Y78231D01*
X207174Y78231D01*
G37*
%LPD*%
%LPC*%
G36*
X207174Y154431D02*
X207174Y154431D01*
X203253Y156055D01*
X200251Y159057D01*
X198627Y162978D01*
X198627Y167222D01*
X200251Y171143D01*
X203253Y174145D01*
X207174Y175769D01*
X224626Y175769D01*
X228547Y174145D01*
X231549Y171143D01*
X233173Y167222D01*
X233173Y162978D01*
X231549Y159057D01*
X228547Y156055D01*
X224626Y154431D01*
X207174Y154431D01*
G37*
%LPD*%
%LPC*%
G36*
X283374Y154431D02*
X283374Y154431D01*
X279453Y156055D01*
X276451Y159057D01*
X274827Y162978D01*
X274827Y167222D01*
X276451Y171143D01*
X279453Y174145D01*
X283374Y175769D01*
X300826Y175769D01*
X304747Y174145D01*
X307749Y171143D01*
X309373Y167222D01*
X309373Y162978D01*
X307749Y159057D01*
X304747Y156055D01*
X300826Y154431D01*
X283374Y154431D01*
G37*
%LPD*%
%LPC*%
G36*
X68442Y455167D02*
X68442Y455167D01*
X63494Y457217D01*
X59707Y461004D01*
X57657Y465952D01*
X57657Y471308D01*
X59707Y476256D01*
X63494Y480043D01*
X68442Y482093D01*
X73798Y482093D01*
X78746Y480043D01*
X82533Y476256D01*
X84583Y471308D01*
X84583Y465952D01*
X82533Y461004D01*
X78746Y457217D01*
X73798Y455167D01*
X68442Y455167D01*
G37*
%LPD*%
%LPC*%
G36*
X426582Y456437D02*
X426582Y456437D01*
X421634Y458487D01*
X417847Y462274D01*
X415797Y467222D01*
X415797Y472578D01*
X417847Y477526D01*
X421634Y481313D01*
X426582Y483363D01*
X431938Y483363D01*
X436886Y481313D01*
X440673Y477526D01*
X442723Y472578D01*
X442723Y467222D01*
X440673Y462274D01*
X436886Y458487D01*
X431938Y456437D01*
X426582Y456437D01*
G37*
%LPD*%
%LPC*%
G36*
X250121Y40955D02*
X250121Y40955D01*
X246040Y42646D01*
X242916Y45770D01*
X241225Y49851D01*
X241225Y54269D01*
X242916Y58350D01*
X246040Y61474D01*
X250121Y63165D01*
X254539Y63165D01*
X258620Y61474D01*
X261744Y58350D01*
X263435Y54269D01*
X263435Y49851D01*
X261744Y45770D01*
X258620Y42646D01*
X254539Y40955D01*
X250121Y40955D01*
G37*
%LPD*%
%LPC*%
G36*
X225121Y40955D02*
X225121Y40955D01*
X221040Y42646D01*
X217916Y45770D01*
X216225Y49851D01*
X216225Y54269D01*
X217916Y58350D01*
X221040Y61474D01*
X225121Y63165D01*
X229539Y63165D01*
X233620Y61474D01*
X236744Y58350D01*
X238435Y54269D01*
X238435Y49851D01*
X236744Y45770D01*
X233620Y42646D01*
X229539Y40955D01*
X225121Y40955D01*
G37*
%LPD*%
%LPC*%
G36*
X200121Y40955D02*
X200121Y40955D01*
X196040Y42646D01*
X192916Y45770D01*
X191225Y49851D01*
X191225Y54269D01*
X192916Y58350D01*
X196040Y61474D01*
X200121Y63165D01*
X204539Y63165D01*
X208620Y61474D01*
X211744Y58350D01*
X213435Y54269D01*
X213435Y49851D01*
X211744Y45770D01*
X208620Y42646D01*
X204539Y40955D01*
X200121Y40955D01*
G37*
%LPD*%
%LPC*%
G36*
X112421Y446531D02*
X112421Y446531D01*
X106171Y452781D01*
X106171Y461619D01*
X112421Y467869D01*
X121259Y467869D01*
X127509Y461619D01*
X127509Y452781D01*
X121259Y446531D01*
X112421Y446531D01*
G37*
%LPD*%
%LPC*%
G36*
X131471Y422401D02*
X131471Y422401D01*
X125221Y428651D01*
X125221Y437489D01*
X131471Y443739D01*
X140309Y443739D01*
X146559Y437489D01*
X146559Y428651D01*
X140309Y422401D01*
X131471Y422401D01*
G37*
%LPD*%
%LPC*%
G36*
X104801Y422401D02*
X104801Y422401D01*
X98551Y428651D01*
X98551Y437489D01*
X104801Y443739D01*
X113639Y443739D01*
X119889Y437489D01*
X119889Y428651D01*
X113639Y422401D01*
X104801Y422401D01*
G37*
%LPD*%
%LPC*%
G36*
X381661Y351281D02*
X381661Y351281D01*
X375411Y357531D01*
X375411Y366369D01*
X381661Y372619D01*
X390499Y372619D01*
X396749Y366369D01*
X396749Y357531D01*
X390499Y351281D01*
X381661Y351281D01*
G37*
%LPD*%
%LPC*%
G36*
X293623Y192023D02*
X293623Y192023D01*
X293623Y199645D01*
X299605Y199645D01*
X301371Y199293D01*
X303036Y198604D01*
X304534Y197603D01*
X305807Y196330D01*
X306808Y194832D01*
X307497Y193167D01*
X307725Y192023D01*
X293623Y192023D01*
G37*
%LPD*%
%LPC*%
G36*
X293623Y395223D02*
X293623Y395223D01*
X293623Y402845D01*
X299605Y402845D01*
X301371Y402493D01*
X303036Y401804D01*
X304534Y400803D01*
X305807Y399530D01*
X306808Y398032D01*
X307497Y396367D01*
X307725Y395223D01*
X293623Y395223D01*
G37*
%LPD*%
%LPC*%
G36*
X217423Y242823D02*
X217423Y242823D01*
X217423Y250445D01*
X223405Y250445D01*
X225171Y250093D01*
X226836Y249404D01*
X228334Y248403D01*
X229607Y247130D01*
X230608Y245632D01*
X231297Y243967D01*
X231525Y242823D01*
X217423Y242823D01*
G37*
%LPD*%
%LPC*%
G36*
X276475Y395223D02*
X276475Y395223D01*
X276703Y396367D01*
X277392Y398032D01*
X278393Y399530D01*
X279666Y400803D01*
X281164Y401804D01*
X282829Y402493D01*
X284595Y402845D01*
X290577Y402845D01*
X290577Y395223D01*
X276475Y395223D01*
G37*
%LPD*%
%LPC*%
G36*
X200275Y242823D02*
X200275Y242823D01*
X200503Y243967D01*
X201192Y245632D01*
X202193Y247130D01*
X203466Y248403D01*
X204964Y249404D01*
X206629Y250093D01*
X208395Y250445D01*
X214377Y250445D01*
X214377Y242823D01*
X200275Y242823D01*
G37*
%LPD*%
%LPC*%
G36*
X276475Y192023D02*
X276475Y192023D01*
X276703Y193167D01*
X277392Y194832D01*
X278393Y196330D01*
X279666Y197603D01*
X281164Y198604D01*
X282829Y199293D01*
X284595Y199645D01*
X290577Y199645D01*
X290577Y192023D01*
X276475Y192023D01*
G37*
%LPD*%
%LPC*%
G36*
X293623Y181355D02*
X293623Y181355D01*
X293623Y188977D01*
X307725Y188977D01*
X307497Y187833D01*
X306808Y186168D01*
X305807Y184670D01*
X304534Y183397D01*
X303036Y182396D01*
X301371Y181707D01*
X299605Y181355D01*
X293623Y181355D01*
G37*
%LPD*%
%LPC*%
G36*
X217423Y232155D02*
X217423Y232155D01*
X217423Y239777D01*
X231525Y239777D01*
X231297Y238633D01*
X230608Y236968D01*
X229607Y235470D01*
X228334Y234197D01*
X226836Y233196D01*
X225171Y232507D01*
X223405Y232155D01*
X217423Y232155D01*
G37*
%LPD*%
%LPC*%
G36*
X293623Y384555D02*
X293623Y384555D01*
X293623Y392177D01*
X307725Y392177D01*
X307497Y391033D01*
X306808Y389368D01*
X305807Y387870D01*
X304534Y386597D01*
X303036Y385596D01*
X301371Y384907D01*
X299605Y384555D01*
X293623Y384555D01*
G37*
%LPD*%
%LPC*%
G36*
X284595Y384555D02*
X284595Y384555D01*
X282829Y384907D01*
X281164Y385596D01*
X279666Y386597D01*
X278393Y387870D01*
X277392Y389368D01*
X276703Y391033D01*
X276475Y392177D01*
X290577Y392177D01*
X290577Y384555D01*
X284595Y384555D01*
G37*
%LPD*%
%LPC*%
G36*
X208395Y232155D02*
X208395Y232155D01*
X206629Y232507D01*
X204964Y233196D01*
X203466Y234197D01*
X202193Y235470D01*
X201192Y236968D01*
X200503Y238633D01*
X200275Y239777D01*
X214377Y239777D01*
X214377Y232155D01*
X208395Y232155D01*
G37*
%LPD*%
%LPC*%
G36*
X284595Y181355D02*
X284595Y181355D01*
X282829Y181707D01*
X281164Y182396D01*
X279666Y183397D01*
X278393Y184670D01*
X277392Y186168D01*
X276703Y187833D01*
X276475Y188977D01*
X290577Y188977D01*
X290577Y181355D01*
X284595Y181355D01*
G37*
%LPD*%
%LPC*%
G36*
X21843Y470153D02*
X21843Y470153D01*
X21843Y480476D01*
X23116Y480275D01*
X24903Y479694D01*
X26577Y478841D01*
X28098Y477736D01*
X29426Y476408D01*
X30531Y474887D01*
X31384Y473213D01*
X31965Y471426D01*
X32166Y470153D01*
X21843Y470153D01*
G37*
%LPD*%
%LPC*%
G36*
X26923Y141223D02*
X26923Y141223D01*
X26923Y151546D01*
X28196Y151345D01*
X29983Y150764D01*
X31657Y149911D01*
X33178Y148806D01*
X34506Y147478D01*
X35611Y145957D01*
X36464Y144283D01*
X37045Y142496D01*
X37246Y141223D01*
X26923Y141223D01*
G37*
%LPD*%
%LPC*%
G36*
X416813Y21843D02*
X416813Y21843D01*
X416813Y32166D01*
X418086Y31965D01*
X419873Y31384D01*
X421547Y30531D01*
X423068Y29426D01*
X424396Y28098D01*
X425501Y26577D01*
X426354Y24903D01*
X426935Y23116D01*
X427136Y21843D01*
X416813Y21843D01*
G37*
%LPD*%
%LPC*%
G36*
X26923Y138177D02*
X26923Y138177D01*
X37246Y138177D01*
X37045Y136904D01*
X36464Y135117D01*
X35611Y133443D01*
X34506Y131922D01*
X33178Y130594D01*
X31657Y129489D01*
X29983Y128636D01*
X28196Y128055D01*
X26923Y127854D01*
X26923Y138177D01*
G37*
%LPD*%
%LPC*%
G36*
X471423Y138177D02*
X471423Y138177D01*
X481746Y138177D01*
X481545Y136904D01*
X480964Y135117D01*
X480111Y133443D01*
X479006Y131922D01*
X477678Y130594D01*
X476157Y129489D01*
X474483Y128636D01*
X472696Y128055D01*
X471423Y127854D01*
X471423Y138177D01*
G37*
%LPD*%
%LPC*%
G36*
X468214Y471423D02*
X468214Y471423D01*
X468415Y472696D01*
X468996Y474483D01*
X469849Y476157D01*
X470954Y477678D01*
X472282Y479006D01*
X473803Y480111D01*
X475477Y480964D01*
X477264Y481545D01*
X478537Y481746D01*
X478537Y471423D01*
X468214Y471423D01*
G37*
%LPD*%
%LPC*%
G36*
X21843Y467107D02*
X21843Y467107D01*
X32166Y467107D01*
X31965Y465834D01*
X31384Y464047D01*
X30531Y462373D01*
X29426Y460852D01*
X28098Y459524D01*
X26577Y458419D01*
X24903Y457566D01*
X23116Y456985D01*
X21843Y456784D01*
X21843Y467107D01*
G37*
%LPD*%
%LPC*%
G36*
X26923Y163577D02*
X26923Y163577D01*
X37246Y163577D01*
X37045Y162304D01*
X36464Y160517D01*
X35611Y158843D01*
X34506Y157322D01*
X33178Y155994D01*
X31657Y154889D01*
X29983Y154036D01*
X28196Y153455D01*
X26923Y153254D01*
X26923Y163577D01*
G37*
%LPD*%
%LPC*%
G36*
X13554Y141223D02*
X13554Y141223D01*
X13755Y142496D01*
X14336Y144283D01*
X15189Y145957D01*
X16294Y147478D01*
X17622Y148806D01*
X19143Y149911D01*
X20817Y150764D01*
X22604Y151345D01*
X23877Y151546D01*
X23877Y141223D01*
X13554Y141223D01*
G37*
%LPD*%
%LPC*%
G36*
X444753Y22607D02*
X444753Y22607D01*
X455076Y22607D01*
X454875Y21334D01*
X454294Y19547D01*
X453441Y17873D01*
X452336Y16352D01*
X451008Y15024D01*
X449487Y13919D01*
X447813Y13066D01*
X446026Y12485D01*
X444753Y12284D01*
X444753Y22607D01*
G37*
%LPD*%
%LPC*%
G36*
X153923Y22607D02*
X153923Y22607D01*
X164246Y22607D01*
X164045Y21334D01*
X163464Y19547D01*
X162611Y17873D01*
X161506Y16352D01*
X160178Y15024D01*
X158657Y13919D01*
X156983Y13066D01*
X155196Y12485D01*
X153923Y12284D01*
X153923Y22607D01*
G37*
%LPD*%
%LPC*%
G36*
X22604Y128055D02*
X22604Y128055D01*
X20817Y128636D01*
X19143Y129489D01*
X17622Y130594D01*
X16294Y131922D01*
X15189Y133443D01*
X14336Y135117D01*
X13755Y136904D01*
X13554Y138177D01*
X23877Y138177D01*
X23877Y127854D01*
X22604Y128055D01*
G37*
%LPD*%
%LPC*%
G36*
X467104Y128055D02*
X467104Y128055D01*
X465317Y128636D01*
X463643Y129489D01*
X462122Y130594D01*
X460794Y131922D01*
X459689Y133443D01*
X458836Y135117D01*
X458255Y136904D01*
X458054Y138177D01*
X468377Y138177D01*
X468377Y127854D01*
X467104Y128055D01*
G37*
%LPD*%
%LPC*%
G36*
X477264Y458255D02*
X477264Y458255D01*
X475477Y458836D01*
X473803Y459689D01*
X472282Y460794D01*
X470954Y462122D01*
X469849Y463643D01*
X468996Y465317D01*
X468415Y467104D01*
X468214Y468377D01*
X478537Y468377D01*
X478537Y458054D01*
X477264Y458255D01*
G37*
%LPD*%
%LPC*%
G36*
X149604Y12485D02*
X149604Y12485D01*
X147817Y13066D01*
X146143Y13919D01*
X144622Y15024D01*
X143294Y16352D01*
X142189Y17873D01*
X141336Y19547D01*
X140755Y21334D01*
X140554Y22607D01*
X150877Y22607D01*
X150877Y12284D01*
X149604Y12485D01*
G37*
%LPD*%
%LPC*%
G36*
X22604Y153455D02*
X22604Y153455D01*
X20817Y154036D01*
X19143Y154889D01*
X17622Y155994D01*
X16294Y157322D01*
X15189Y158843D01*
X14336Y160517D01*
X13755Y162304D01*
X13554Y163577D01*
X23877Y163577D01*
X23877Y153254D01*
X22604Y153455D01*
G37*
%LPD*%
%LPC*%
G36*
X440434Y12485D02*
X440434Y12485D01*
X438647Y13066D01*
X436973Y13919D01*
X435452Y15024D01*
X434124Y16352D01*
X433019Y17873D01*
X432166Y19547D01*
X431585Y21334D01*
X431384Y22607D01*
X441707Y22607D01*
X441707Y12284D01*
X440434Y12485D01*
G37*
%LPD*%
%LPC*%
G36*
X331723Y395223D02*
X331723Y395223D01*
X331723Y402845D01*
X333988Y402845D01*
X339345Y397488D01*
X339345Y395223D01*
X331723Y395223D01*
G37*
%LPD*%
%LPC*%
G36*
X137413Y358393D02*
X137413Y358393D01*
X137413Y366015D01*
X139678Y366015D01*
X145035Y360658D01*
X145035Y358393D01*
X137413Y358393D01*
G37*
%LPD*%
%LPC*%
G36*
X344423Y217423D02*
X344423Y217423D01*
X344423Y225045D01*
X346688Y225045D01*
X352045Y219688D01*
X352045Y217423D01*
X344423Y217423D01*
G37*
%LPD*%
%LPC*%
G36*
X166623Y115823D02*
X166623Y115823D01*
X166623Y123445D01*
X168888Y123445D01*
X174245Y118088D01*
X174245Y115823D01*
X166623Y115823D01*
G37*
%LPD*%
%LPC*%
G36*
X359663Y363473D02*
X359663Y363473D01*
X359663Y371095D01*
X361928Y371095D01*
X367285Y365738D01*
X367285Y363473D01*
X359663Y363473D01*
G37*
%LPD*%
%LPC*%
G36*
X333755Y217423D02*
X333755Y217423D01*
X333755Y219688D01*
X339112Y225045D01*
X341377Y225045D01*
X341377Y217423D01*
X333755Y217423D01*
G37*
%LPD*%
%LPC*%
G36*
X155955Y115823D02*
X155955Y115823D01*
X155955Y118088D01*
X161312Y123445D01*
X163577Y123445D01*
X163577Y115823D01*
X155955Y115823D01*
G37*
%LPD*%
%LPC*%
G36*
X348995Y363473D02*
X348995Y363473D01*
X348995Y365738D01*
X354352Y371095D01*
X356617Y371095D01*
X356617Y363473D01*
X348995Y363473D01*
G37*
%LPD*%
%LPC*%
G36*
X126745Y358393D02*
X126745Y358393D01*
X126745Y360658D01*
X132102Y366015D01*
X134367Y366015D01*
X134367Y358393D01*
X126745Y358393D01*
G37*
%LPD*%
%LPC*%
G36*
X359663Y352805D02*
X359663Y352805D01*
X359663Y360427D01*
X367285Y360427D01*
X367285Y358162D01*
X361928Y352805D01*
X359663Y352805D01*
G37*
%LPD*%
%LPC*%
G36*
X321055Y395223D02*
X321055Y395223D01*
X321055Y397488D01*
X326412Y402845D01*
X328677Y402845D01*
X328677Y395223D01*
X321055Y395223D01*
G37*
%LPD*%
%LPC*%
G36*
X344423Y206755D02*
X344423Y206755D01*
X344423Y214377D01*
X352045Y214377D01*
X352045Y212112D01*
X346688Y206755D01*
X344423Y206755D01*
G37*
%LPD*%
%LPC*%
G36*
X137413Y347725D02*
X137413Y347725D01*
X137413Y355347D01*
X145035Y355347D01*
X145035Y353082D01*
X139678Y347725D01*
X137413Y347725D01*
G37*
%LPD*%
%LPC*%
G36*
X166623Y105155D02*
X166623Y105155D01*
X166623Y112777D01*
X174245Y112777D01*
X174245Y110512D01*
X168888Y105155D01*
X166623Y105155D01*
G37*
%LPD*%
%LPC*%
G36*
X331723Y384555D02*
X331723Y384555D01*
X331723Y392177D01*
X339345Y392177D01*
X339345Y389912D01*
X333988Y384555D01*
X331723Y384555D01*
G37*
%LPD*%
%LPC*%
G36*
X326412Y384555D02*
X326412Y384555D01*
X321055Y389912D01*
X321055Y392177D01*
X328677Y392177D01*
X328677Y384555D01*
X326412Y384555D01*
G37*
%LPD*%
%LPC*%
G36*
X132102Y347725D02*
X132102Y347725D01*
X126745Y353082D01*
X126745Y355347D01*
X134367Y355347D01*
X134367Y347725D01*
X132102Y347725D01*
G37*
%LPD*%
%LPC*%
G36*
X354352Y352805D02*
X354352Y352805D01*
X348995Y358162D01*
X348995Y360427D01*
X356617Y360427D01*
X356617Y352805D01*
X354352Y352805D01*
G37*
%LPD*%
%LPC*%
G36*
X161312Y105155D02*
X161312Y105155D01*
X155955Y110512D01*
X155955Y112777D01*
X163577Y112777D01*
X163577Y105155D01*
X161312Y105155D01*
G37*
%LPD*%
%LPC*%
G36*
X339112Y206755D02*
X339112Y206755D01*
X333755Y212112D01*
X333755Y214377D01*
X341377Y214377D01*
X341377Y206755D01*
X339112Y206755D01*
G37*
%LPD*%
%LPC*%
G36*
X358139Y361949D02*
X358139Y361949D01*
X358139Y361951D01*
X358141Y361951D01*
X358141Y361949D01*
X358139Y361949D01*
G37*
%LPD*%
%LPC*%
G36*
X330199Y393699D02*
X330199Y393699D01*
X330199Y393701D01*
X330201Y393701D01*
X330201Y393699D01*
X330199Y393699D01*
G37*
%LPD*%
%LPC*%
G36*
X292099Y393699D02*
X292099Y393699D01*
X292099Y393701D01*
X292101Y393701D01*
X292101Y393699D01*
X292099Y393699D01*
G37*
%LPD*%
%LPC*%
G36*
X342899Y215899D02*
X342899Y215899D01*
X342899Y215901D01*
X342901Y215901D01*
X342901Y215899D01*
X342899Y215899D01*
G37*
%LPD*%
%LPC*%
G36*
X135889Y356869D02*
X135889Y356869D01*
X135889Y356871D01*
X135891Y356871D01*
X135891Y356869D01*
X135889Y356869D01*
G37*
%LPD*%
%LPC*%
G36*
X215899Y241299D02*
X215899Y241299D01*
X215899Y241301D01*
X215901Y241301D01*
X215901Y241299D01*
X215899Y241299D01*
G37*
%LPD*%
%LPC*%
G36*
X292099Y190499D02*
X292099Y190499D01*
X292099Y190501D01*
X292101Y190501D01*
X292101Y190499D01*
X292099Y190499D01*
G37*
%LPD*%
%LPC*%
G36*
X165099Y114299D02*
X165099Y114299D01*
X165099Y114301D01*
X165101Y114301D01*
X165101Y114299D01*
X165099Y114299D01*
G37*
%LPD*%
%LPC*%
G36*
X25399Y139699D02*
X25399Y139699D01*
X25399Y139701D01*
X25401Y139701D01*
X25401Y139699D01*
X25399Y139699D01*
G37*
%LPD*%
D10*
X330200Y419100D03*
X330200Y393700D03*
D11*
X190500Y114300D03*
X165100Y114300D03*
D12*
X317500Y215900D03*
X342900Y215900D03*
D10*
X392430Y482600D03*
X392430Y457200D03*
X116840Y482600D03*
X116840Y457200D03*
D13*
X358140Y361950D03*
X358140Y438150D03*
X135890Y356870D03*
X135890Y433070D03*
D10*
X386080Y438150D03*
X386080Y361950D03*
X109220Y433070D03*
X109220Y356870D03*
D14*
X209296Y419100D02*
X222504Y419100D01*
X222504Y393700D02*
X209296Y393700D01*
X209296Y368300D02*
X222504Y368300D01*
X222504Y342900D02*
X209296Y342900D01*
X209296Y317500D02*
X222504Y317500D01*
X222504Y292100D02*
X209296Y292100D01*
X209296Y266700D02*
X222504Y266700D01*
X222504Y241300D02*
X209296Y241300D01*
X209296Y215900D02*
X222504Y215900D01*
X222504Y190500D02*
X209296Y190500D01*
X209296Y165100D02*
X222504Y165100D01*
X222504Y139700D02*
X209296Y139700D01*
X209296Y114300D02*
X222504Y114300D01*
X222504Y88900D02*
X209296Y88900D01*
X285496Y88900D02*
X298704Y88900D01*
X298704Y114300D02*
X285496Y114300D01*
X285496Y139700D02*
X298704Y139700D01*
X298704Y165100D02*
X285496Y165100D01*
X285496Y190500D02*
X298704Y190500D01*
X298704Y215900D02*
X285496Y215900D01*
X285496Y241300D02*
X298704Y241300D01*
X298704Y266700D02*
X285496Y266700D01*
X285496Y292100D02*
X298704Y292100D01*
X298704Y317500D02*
X285496Y317500D01*
X285496Y342900D02*
X298704Y342900D01*
X298704Y368300D02*
X285496Y368300D01*
X285496Y393700D02*
X298704Y393700D01*
X298704Y419100D02*
X285496Y419100D01*
D15*
X406400Y100330D03*
X406400Y74930D03*
X469900Y368300D03*
X469900Y342900D03*
X469900Y317500D03*
X469900Y292100D03*
X469900Y266700D03*
X469900Y241300D03*
X469900Y215900D03*
X469900Y190500D03*
X469900Y165100D03*
X469900Y139700D03*
X25400Y241300D03*
X25400Y215900D03*
X25400Y190500D03*
X25400Y165100D03*
X25400Y139700D03*
X25400Y368300D03*
X25400Y342900D03*
X25400Y317500D03*
X25400Y292100D03*
X25400Y266700D03*
X25400Y25400D03*
X25400Y76200D03*
X25400Y50800D03*
X152400Y24130D03*
X152400Y49530D03*
D16*
X202330Y19060D03*
X227330Y19060D03*
X252330Y19060D03*
X252330Y52060D03*
X227330Y52060D03*
X202330Y52060D03*
D15*
X119380Y20320D03*
X119380Y45720D03*
X119380Y71120D03*
X119380Y96520D03*
X415290Y20320D03*
X389890Y20320D03*
X364490Y20320D03*
X339090Y20320D03*
X313690Y20320D03*
X288290Y20320D03*
X201930Y473710D03*
X227330Y473710D03*
X252730Y473710D03*
X278130Y473710D03*
X303530Y473710D03*
X443230Y24130D03*
X443230Y49530D03*
X443230Y74930D03*
X443230Y100330D03*
X429260Y469900D03*
X480060Y469900D03*
X71120Y468630D03*
X20320Y468630D03*
D17*
X331470Y71120D03*
D18*
X331470Y190500D01*
D17*
X331470Y190500D03*
X46990Y215900D03*
D18*
X46990Y153670D01*
D17*
X46990Y153670D03*
D18*
X292100Y419100D02*
X330200Y419100D01*
X368300Y482600D02*
X392430Y482600D01*
X368300Y482600D02*
X330200Y444500D01*
X330200Y419100D01*
D17*
X76200Y25400D03*
D18*
X76200Y127000D01*
D17*
X76200Y127000D03*
X419100Y165100D03*
D18*
X419100Y368300D01*
D17*
X419100Y368300D03*
X63500Y203200D03*
X63500Y330200D03*
D18*
X63500Y203200D01*
X109220Y356870D02*
X109220Y377190D01*
X148590Y416560D01*
D17*
X148590Y416560D03*
D18*
X358140Y438150D02*
X377190Y457200D01*
X392430Y457200D01*
X278130Y468630D02*
X278130Y473710D01*
X278130Y468630D02*
X241300Y431800D01*
X241300Y355600D01*
X228600Y342900D01*
X215900Y342900D01*
X303530Y468630D02*
X303530Y473710D01*
X303530Y468630D02*
X266700Y431800D01*
X266700Y342900D01*
X241300Y317500D01*
X215900Y317500D01*
X201930Y433070D02*
X201930Y473710D01*
X201930Y433070D02*
X215900Y419100D01*
D17*
X165100Y139700D03*
D18*
X165100Y457200D01*
D17*
X165100Y457200D03*
X181610Y165100D03*
D18*
X181610Y407670D01*
D17*
X181610Y407670D03*
X349250Y166370D03*
D18*
X349250Y114300D01*
D17*
X349250Y114300D03*
X368300Y139700D03*
D18*
X368300Y88900D01*
D17*
X368300Y88900D03*
X264160Y214630D03*
D18*
X264160Y85090D01*
X285750Y63500D02*
X313690Y63500D01*
X339090Y38100D01*
X339090Y20320D01*
X285750Y63500D02*
X264160Y85090D01*
X228600Y266700D02*
X215900Y266700D01*
X228600Y266700D02*
X241300Y254000D01*
X241300Y90170D01*
X311150Y20320D02*
X313690Y20320D01*
X311150Y20320D02*
X241300Y90170D01*
D17*
X88900Y279400D03*
D18*
X88900Y190500D01*
D17*
X88900Y190500D03*
X139700Y88900D03*
D18*
X139700Y266700D01*
D17*
X139700Y266700D03*
X393700Y127000D03*
D18*
X393700Y214630D01*
D17*
X393700Y214630D03*
M02*
